<svg width="464" height="462" viewBox="0 0 464 462" fill="none" xmlns="http://www.w3.org/2000/svg">
<g clip-path="url(#clip0_101_1151)">
<path d="M231.53 461.55C103.654 461.55 -0.00991821 401.699 -0.00991821 327.87C-0.00991821 254.041 103.654 194.19 231.53 194.19C359.406 194.19 463.07 254.041 463.07 327.87C463.07 401.699 359.406 461.55 231.53 461.55Z" fill="#F0F0F0"/>
<path d="M157.44 363.11C157.37 361.02 158.09 358.66 159.29 356.61C159.54 356.19 159.8 355.78 160.08 355.39C160.09 355.37 160.11 355.35 160.12 355.33C160.39 354.96 160.68 354.6 160.99 354.27C161.02 354.24 161.04 354.21 161.07 354.18C161.37 353.86 161.68 353.55 162.01 353.27C162.04 353.25 162.07 353.22 162.1 353.2C162.43 352.92 162.78 352.66 163.13 352.44C163.33 352.31 163.53 352.2 163.73 352.1C163.82 352.05 163.91 352.02 164 351.98C164.1 351.93 164.21 351.88 164.31 351.84C164.46 351.78 164.61 351.74 164.75 351.7C164.79 351.69 164.83 351.67 164.87 351.66C165.04 351.61 165.22 351.58 165.38 351.56C165.39 351.56 165.4 351.56 165.41 351.56C166.12 351.47 166.77 351.57 167.32 351.85C167.32 351.85 167.32 351.85 167.33 351.85C172.62 354.5 203.1 373.89 217.13 382.64L224.08 386.86C224.28 386.97 224.45 387.14 224.59 387.35C224.61 387.37 224.63 387.4 224.64 387.43C224.7 387.52 224.75 387.62 224.8 387.73C224.83 387.8 224.85 387.87 224.87 387.94C224.9 388.03 224.93 388.11 224.95 388.21C224.96 388.27 224.97 388.33 224.98 388.39C225.3 388.56 225.69 388.78 226.13 389.02L227.16 389.58C229.36 387.46 232.01 385.48 235.09 383.7C244.71 378.15 257.45 375.09 270.97 375.09C284.49 375.09 297.23 378.15 306.85 383.7C316.81 389.45 322.3 397.22 322.3 405.57C322.3 413.92 316.81 421.69 306.85 427.44C297.23 432.99 284.49 436.05 270.97 436.05C257.45 436.05 244.71 432.99 235.09 427.44C225.13 421.69 219.64 413.92 219.64 405.57C219.64 401.8 220.76 398.16 222.9 394.76L221.98 394.26C221.22 394.68 220.53 394.73 220.01 394.45L219.97 394.43C215.21 391.81 168.81 372.03 159.32 366.95C158.21 366.35 157.49 365.02 157.43 363.1L157.44 363.11ZM239.49 419.85C247.79 424.64 258.98 427.28 270.98 427.28C282.98 427.28 294.17 424.64 302.47 419.85C309.6 415.73 313.53 410.66 313.53 405.58C313.53 400.5 309.6 395.42 302.47 391.31C294.17 386.52 282.98 383.88 270.98 383.88C258.98 383.88 247.79 386.52 239.49 391.31C232.36 395.43 228.43 400.5 228.43 405.58C228.43 410.66 232.36 415.73 239.49 419.85Z" fill="#E0E0E0"/>
<path d="M150.36 245.64L197.43 218.41C199.82 217.03 203.7 217.03 206.09 218.41L445.17 356.45C447.56 357.83 447.56 360.07 445.17 361.45L398.1 388.68C395.71 390.06 391.83 390.06 389.44 388.68L299.84 336.95L286.07 344.96C278.78 349.17 266.95 349.17 259.66 344.96L218.6 321.43C211.31 317.22 211.31 310.4 218.6 306.19L232.36 298.19L150.35 250.65C147.96 249.27 147.96 247.03 150.35 245.65L150.36 245.64Z" fill="#E0E0E0"/>
<path d="M71.4 374.54C45.9121 374.54 25.25 362.608 25.25 347.89C25.25 333.172 45.9121 321.24 71.4 321.24C96.888 321.24 117.55 333.172 117.55 347.89C117.55 362.608 96.888 374.54 71.4 374.54Z" fill="#E0E0E0"/>
<path d="M45.1801 317.81C45.1801 311.56 46.4201 300.05 41.1301 289.25C37.3001 281.43 30.4401 273.82 24.0701 274.58C18.1301 275.28 17.5901 284.41 23.2701 290.66C28.9501 296.91 36.1801 305.55 37.7501 319.37L41.8401 329.62L45.1801 317.8V317.81Z" fill="#051C2C"/>
<g opacity="0.2">
<path d="M45.1801 317.81C45.1801 311.56 46.4201 300.05 41.1301 289.25C37.3001 281.43 30.4401 273.82 24.0701 274.58C18.1301 275.28 17.5901 284.41 23.2701 290.66C28.9501 296.91 36.1801 305.55 37.7501 319.37L41.8401 329.62L45.1801 317.8V317.81Z" fill="black"/>
</g>
<path d="M43.0501 322.2C42.8401 322.16 42.6801 321.97 42.6901 321.76C43.4101 304 37.6301 289.25 25.9701 279.12C25.7901 278.96 25.7701 278.69 25.9301 278.51C26.0901 278.33 26.3601 278.31 26.5401 278.47C38.4001 288.78 44.2901 303.77 43.5601 321.8C43.5501 322.04 43.3501 322.23 43.1101 322.22C43.0901 322.22 43.0701 322.22 43.0501 322.22V322.2Z" fill="white"/>
<path d="M46.3101 340.14C46.3101 340.14 42.0101 343.04 35.3201 343.2C28.6401 343.36 26.1701 339.84 26.1701 339.84C26.1701 339.84 29.5701 334.05 33.5201 332.82C33.5201 332.82 27.0501 333.26 21.5301 335.96C21.5301 335.96 17.5201 335.48 16.7501 329.17C16.7501 329.17 19.6101 325.82 27.8201 324.9C27.8201 324.9 23.1501 323.04 15.9401 323.88C15.3901 324.02 14.2201 315.83 14.0301 312.1C13.8401 308.37 15.3001 308.61 18.2401 308.23C21.1801 307.85 30.9001 308.67 32.4701 310.47C34.0401 312.27 34.2201 317.72 34.2201 317.72C34.2201 317.72 36.3201 314.93 36.2801 312.18C36.2801 312.18 39.2601 311.6 42.3001 313.13C45.3401 314.67 46.3101 315.9 46.4601 318.23C46.6101 320.56 46.8101 324.05 45.87 326.76C45.87 326.76 48.6401 322.3 48.5001 318.41C48.5001 318.41 50.0201 320.92 51.3301 324.32C52.6401 327.72 51.0901 335.95 46.3001 340.12L46.3101 340.14Z" fill="#051C2C"/>
<path d="M46.2001 340.56C46.0601 340.52 45.95 340.42 45.9 340.28C42.1 328.61 24.1901 313.25 17.3501 310.94C17.1201 310.86 17.0001 310.62 17.0801 310.39C17.1601 310.16 17.3901 310.03 17.6301 310.12C24.6001 312.47 42.8501 328.13 46.7301 340.01C46.8001 340.24 46.6801 340.48 46.4501 340.56C46.3701 340.59 46.2801 340.59 46.2001 340.56Z" fill="white"/>
<path d="M259.66 340.98L224.29 320.53C220.64 318.42 218.82 315.67 218.82 312.91C218.82 310.15 218.8 307.99 218.8 307.99L252.09 289.1C254.03 287.98 255.61 285.25 255.61 283V239.39L317.4 275.09V318.7C317.4 320.95 315.83 323.68 313.88 324.8L286.07 340.99C278.78 345.2 266.95 345.2 259.66 340.99V340.98Z" fill="#37474F"/>
<path d="M302.56 326.42V331.32L313.88 324.79C315.81 323.67 317.4 320.95 317.4 318.69V275.08L305.63 268.29C305.39 271.28 305.12 274.37 304.88 277.38L313.13 282.16V316.23C313.13 318.49 311.56 321.21 309.61 322.33L302.56 326.42Z" fill="#0E1B2B"/>
<path d="M313.13 316.24C313.13 318.49 311.55 321.22 309.61 322.34L286.07 336.06C278.78 340.27 266.95 340.27 259.66 336.06L224.27 315.61C216.98 311.4 216.98 304.58 224.27 300.37L247.83 286.64C249.78 285.52 251.35 282.79 251.35 280.54V246.46L313.14 282.16V316.24H313.13Z" fill="#006975"/>
<path opacity="0.15" d="M240.65 290.78L247.82 286.63C249.77 285.51 251.34 282.78 251.34 280.53V246.45L313.13 282.15V316.23C313.13 318.48 311.55 321.21 309.61 322.33L302.56 326.4L240.65 290.77V290.78Z" fill="black"/>
<path d="M218.81 307.99V312.91C218.81 315.67 220.64 318.42 224.28 320.53L259.66 340.97C263.16 343 267.69 344.02 272.26 344.1V339.2C267.69 339.14 263.15 338.08 259.66 336.07L224.28 315.61C220.64 313.52 218.81 310.75 218.81 307.99Z" fill="#37474F"/>
<path d="M412.34 363.29C410.06 364.61 406.24 364.54 403.81 363.13C373.43 345.59 195.23 242.71 164.86 225.18C162.43 223.78 160.46 220.36 160.46 217.56V8.40995C160.46 5.59995 162.31 2.25995 164.59 0.939951C166.87 -0.380049 170.69 -0.310049 173.12 1.09995L412.06 139.05C414.49 140.45 416.46 143.87 416.46 146.67V355.82C416.46 358.63 414.61 361.97 412.33 363.29H412.34Z" fill="#006975"/>
<path d="M403.81 363.13L164.86 225.18C162.43 223.78 160.46 220.36 160.46 217.56V8.39994C160.46 5.58994 162.43 4.45994 164.86 5.85994L403.8 143.82C406.23 145.22 408.2 148.64 408.2 151.44V360.59C408.2 363.4 406.23 364.53 403.8 363.13H403.81Z" fill="#37474F"/>
<path d="M399.95 332.96V154.18C399.95 152.5 398.77 150.45 397.31 149.61L171.36 19.1599C169.9 18.3199 168.72 18.9999 168.72 20.6799V199.46C168.72 201.14 169.89 203.19 171.35 204.03L397.31 334.48C398.77 335.32 399.95 334.64 399.95 332.96Z" fill="#051C2C"/>
<path opacity="0.7" d="M399.95 332.96V154.18C399.95 152.5 398.77 150.45 397.31 149.61L171.36 19.1599C169.9 18.3199 168.72 18.9999 168.72 20.6799V199.46C168.72 201.14 169.89 203.19 171.35 204.03L397.31 334.48C398.77 335.32 399.95 334.64 399.95 332.96Z" fill="white"/>
<path d="M284.79 285.69C285.27 285.69 285.72 285.58 286.11 285.35C287.05 284.81 287.57 283.7 287.57 282.24C287.57 279.4 285.65 276.07 283.19 274.65C281.92 273.92 280.71 273.82 279.77 274.36C278.83 274.9 278.31 276.01 278.31 277.47C278.31 280.31 280.23 283.64 282.69 285.06C283.42 285.48 284.13 285.69 284.79 285.69ZM281.1 275.02C281.58 275.02 282.12 275.19 282.69 275.52C284.83 276.75 286.57 279.77 286.57 282.24C286.57 283.33 286.23 284.12 285.61 284.48C284.99 284.84 284.13 284.73 283.19 284.19C281.05 282.95 279.31 279.94 279.31 277.47C279.31 276.38 279.65 275.59 280.27 275.23C280.51 275.09 280.79 275.02 281.1 275.02Z" fill="#051C2C"/>
<path d="M129.47 52.7999L362.18 187V358.51C362.18 360.79 359.71 362.23 357.73 361.09L353.58 358.7L133.81 231.98C131.42 230.6 129.47 227.24 129.47 224.47V52.7999Z" fill="#F0F0F0"/>
<path d="M130.47 54.5299V224.46C130.47 226.86 132.23 229.9 134.31 231.11L354.08 357.83L358.23 360.22C358.54 360.4 358.86 360.49 359.2 360.49C359.7 360.49 360.21 360.29 360.58 359.93C360.97 359.56 361.18 359.06 361.18 358.51V187.57L130.47 54.5299ZM129.47 52.7999L362.18 187V358.51C362.18 360.24 360.75 361.49 359.2 361.49C358.71 361.49 358.2 361.36 357.73 361.09L353.58 358.7L133.81 231.98C131.42 230.6 129.47 227.24 129.47 224.47V52.7999Z" fill="#E0E0E0"/>
<path opacity="0.8" d="M134.99 49.61L367.72 183.8L362.18 187L129.47 52.8L134.99 49.61Z" fill="#006975"/>
<path d="M360.62 361.13C360.62 361.13 362.18 360.37 362.18 358.51V191.94C362.18 190.57 362.18 187 362.18 187L367.71 183.81V354.38C367.71 354.59 367.71 354.8 367.67 355.01C367.47 356.42 366.64 357.67 365.41 358.37L360.84 361.01L360.62 361.14V361.13Z" fill="#EBEBEB"/>
<path d="M367.72 183.88V172.31C367.72 170.93 366.75 169.25 365.56 168.55L137.15 36.87C135.96 36.17 134.02 36.17 132.83 36.86L131.64 37.55C130.44 38.24 129.47 39.92 129.47 41.3V52.89L362.18 187.07L367.71 183.88H367.72Z" fill="#051C2C"/>
<path opacity="0.3" d="M367.72 183.88V172.31C367.72 170.93 366.75 169.25 365.56 168.55L137.15 36.87C135.96 36.17 134.02 36.17 132.83 36.86L131.64 37.55C130.44 38.24 129.47 39.92 129.47 41.3V52.89L362.18 187.07L367.71 183.88H367.72Z" fill="black"/>
<path d="M362.18 175.5C362.18 174.12 361.21 172.44 360.02 171.74L131.63 40.06C130.44 39.36 129.47 39.92 129.47 41.3V52.89L362.18 187.07V175.5Z" fill="#051C2C"/>
<path opacity="0.4" d="M362.18 175.5C362.18 174.12 361.21 172.44 360.02 171.74L131.63 40.06C130.44 39.36 129.47 39.92 129.47 41.3V52.89L362.18 187.07V175.5Z" fill="black"/>
<path d="M361.55 173.36C361.94 174.04 362.18 174.81 362.18 175.5V187.07L367.71 183.88V172.3C367.71 171.61 367.47 170.85 367.08 170.17L361.55 173.36Z" fill="#051C2C"/>
<path opacity="0.5" d="M361.55 173.36C361.94 174.04 362.18 174.81 362.18 175.5V187.07L367.71 183.88V172.3C367.71 171.61 367.47 170.85 367.08 170.17L361.55 173.36Z" fill="black"/>
<path d="M139.63 52.36C139.63 53.66 138.72 54.18 137.6 53.53C136.48 52.88 135.57 51.31 135.57 50.01C135.57 48.71 136.48 48.19 137.6 48.84C138.72 49.49 139.63 51.06 139.63 52.36Z" fill="#FAFAFA"/>
<path d="M147.75 57.0501C147.75 58.3501 146.84 58.8701 145.72 58.2201C144.6 57.5701 143.69 56.0001 143.69 54.7001C143.69 53.4001 144.6 52.8801 145.72 53.5301C146.84 54.1801 147.75 55.7501 147.75 57.0501Z" fill="#FAFAFA"/>
<path d="M155.87 61.74C155.87 63.04 154.96 63.56 153.84 62.91C152.72 62.26 151.81 60.69 151.81 59.39C151.81 58.09 152.72 57.57 153.84 58.22C154.96 58.87 155.87 60.44 155.87 61.74Z" fill="#FAFAFA"/>
<path d="M362.18 187.07V358.51C362.18 360.79 359.71 362.23 357.73 361.09L353.58 358.7L302.73 329.38V152.8L362.18 187.08V187.07Z" fill="#FAFAFA"/>
<path d="M298.67 155.68V322.2L134.35 227.33V60.8201L298.67 155.68Z" fill="#FAFAFA"/>
<path d="M316.34 172.91L354.27 194.83C354.97 195.24 355.54 196.22 355.54 197.03V200.98C355.54 201.79 354.97 202.12 354.27 201.71L316.34 179.79C315.64 179.38 315.07 178.4 315.07 177.59V173.64C315.07 172.83 315.64 172.5 316.34 172.91Z" fill="#051C2C"/>
<path opacity="0.8" d="M316.34 172.91L354.27 194.83C354.97 195.24 355.54 196.22 355.54 197.03V200.98C355.54 201.79 354.97 202.12 354.27 201.71L316.34 179.79C315.64 179.38 315.07 178.4 315.07 177.59V173.64C315.07 172.83 315.64 172.5 316.34 172.91Z" fill="#FAFAFA"/>
<path d="M307.89 174.48L309.01 173.4C308.79 172.84 308.65 172.22 308.65 171.61C308.65 170.7 308.95 170 309.49 169.69C309.89 169.46 310.38 169.48 310.85 169.75C311.83 170.32 312.61 171.91 312.61 173.38C312.61 174.29 312.31 174.99 311.77 175.3C311.58 175.41 311.38 175.46 311.17 175.46C310.92 175.46 310.66 175.39 310.41 175.24C310.04 175.03 309.7 174.67 309.42 174.22L308.5 175.1C308.42 175.18 308.31 175.22 308.2 175.22C308.08 175.22 307.97 175.17 307.88 175.09C307.71 174.91 307.72 174.64 307.89 174.47V174.48ZM310.85 174.48C311.04 174.59 311.21 174.61 311.33 174.54C311.51 174.43 311.73 174.07 311.73 173.38C311.73 172.24 311.13 170.92 310.41 170.51C310.29 170.44 310.19 170.41 310.09 170.41C310.03 170.41 309.98 170.42 309.93 170.45C309.75 170.56 309.53 170.92 309.53 171.61C309.53 172.75 310.13 174.07 310.85 174.48Z" fill="#006975"/>
<path d="M354.61 213.29L355.46 213.78C355.51 213.81 355.55 213.78 355.55 213.71V211.41C355.55 211.34 355.51 211.27 355.46 211.24L354.61 210.75C354.56 210.72 354.52 210.75 354.52 210.82V213.12C354.52 213.19 354.56 213.26 354.61 213.29Z" fill="#006975"/>
<path d="M353.34 212.56L354.19 213.05C354.24 213.08 354.28 213.05 354.28 212.98V210.68C354.28 210.61 354.24 210.54 354.19 210.51L353.34 210.02C353.29 209.99 353.25 210.02 353.25 210.09V212.39C353.25 212.46 353.29 212.53 353.34 212.56Z" fill="#006975"/>
<path d="M352.06 211.82L352.91 212.31C352.96 212.34 353 212.31 353 212.24V209.94C353 209.87 352.96 209.8 352.91 209.77L352.06 209.28C352.01 209.25 351.97 209.28 351.97 209.35V211.65C351.97 211.72 352.01 211.79 352.06 211.82Z" fill="#006975"/>
<path d="M354.61 216.26L355.46 216.75C355.51 216.78 355.55 216.75 355.55 216.68V214.38C355.55 214.31 355.51 214.24 355.46 214.21L354.61 213.72C354.56 213.69 354.52 213.72 354.52 213.79V216.09C354.52 216.16 354.56 216.23 354.61 216.26Z" fill="#006975"/>
<path d="M353.34 215.53L354.19 216.02C354.24 216.05 354.28 216.02 354.28 215.95V213.65C354.28 213.58 354.24 213.51 354.19 213.48L353.34 212.99C353.29 212.96 353.25 212.99 353.25 213.06V215.36C353.25 215.43 353.29 215.5 353.34 215.53Z" fill="#006975"/>
<path d="M352.06 214.79L352.91 215.28C352.96 215.31 353 215.28 353 215.21V212.91C353 212.84 352.96 212.77 352.91 212.74L352.06 212.25C352.01 212.22 351.97 212.25 351.97 212.32V214.62C351.97 214.69 352.01 214.76 352.06 214.79Z" fill="#006975"/>
<path d="M354.48 224.11L355.53 223.47C355.53 223.47 355.57 223.35 355.53 223.28L354.48 221.43C354.43 221.34 354.36 221.35 354.36 221.45V223.94C354.36 224.04 354.43 224.14 354.48 224.11Z" fill="#006975"/>
<path d="M354.92 222.7L353.54 221.9V222.56L354.92 223.36C355.04 223.43 355.13 223.34 355.13 223.16C355.13 222.98 355.03 222.78 354.92 222.71V222.7Z" fill="#006975"/>
<path d="M353.28 221.76L352.81 221.48V222.14L353.28 222.41V221.76Z" fill="#006975"/>
<path d="M351.54 221.08V223.49C351.54 223.67 351.64 223.87 351.75 223.94C351.87 224.01 351.96 223.92 351.96 223.74V221.66L352.54 222V221.34L351.74 220.88C351.62 220.81 351.53 220.9 351.53 221.08H351.54Z" fill="#006975"/>
<path d="M354.07 229.51C355.05 230.18 355.71 232.04 355.52 233.41C355.35 234.67 354.6 234.62 354.52 235.2C354.52 235.26 354.47 235.29 354.42 235.26L353.49 234.73C353.49 234.73 353.4 234.63 353.39 234.56C353.29 233.79 352.34 232.86 352.33 231C352.33 229.57 353.11 228.86 354.06 229.52L354.07 229.51Z" fill="#006975"/>
<path d="M353.51 236.24L354.41 236.76C354.47 236.8 354.52 236.76 354.52 236.68V235.85C354.52 235.77 354.47 235.67 354.41 235.64L353.51 235.12C353.45 235.08 353.4 235.12 353.4 235.2V236.03C353.4 236.11 353.45 236.21 353.51 236.24Z" fill="#006975"/>
<path d="M353.85 210.06C354.68 210.74 355.35 212.16 355.48 213.51C355.56 214.3 355.46 214.94 355.24 215.4L355.54 216.97C355.56 217.1 355.49 217.17 355.42 217.09L354.51 216.1C354.13 216.22 353.68 216.11 353.19 215.71C352.36 215.02 351.69 213.61 351.56 212.25C351.35 210.05 352.49 208.94 353.84 210.05L353.85 210.06ZM353.52 215.22C354.35 215.7 355.03 215.05 355.03 213.76C355.03 212.47 354.35 211.04 353.52 210.56C352.69 210.08 352.01 210.73 352.01 212.02C352.01 213.31 352.69 214.74 353.52 215.22Z" fill="#006975"/>
<path d="M353.85 240.41C354.68 241.09 355.35 242.51 355.48 243.86C355.56 244.65 355.46 245.29 355.24 245.75L355.54 247.32C355.56 247.45 355.49 247.52 355.42 247.44L354.51 246.45C354.13 246.57 353.68 246.46 353.19 246.06C352.36 245.37 351.69 243.96 351.56 242.6C351.35 240.4 352.49 239.29 353.84 240.4L353.85 240.41ZM353.52 245.57C354.35 246.05 355.03 245.4 355.03 244.11C355.03 242.82 354.35 241.39 353.52 240.91C352.69 240.43 352.01 241.08 352.01 242.37C352.01 243.66 352.69 245.09 353.52 245.57Z" fill="#006975"/>
<path d="M352.57 251.53C352.57 252.21 352.93 252.97 353.37 253.22C353.81 253.47 354.17 253.13 354.17 252.45C354.17 251.77 353.81 251.01 353.37 250.76C352.93 250.51 352.57 250.85 352.57 251.53Z" fill="#006975"/>
<path d="M351.2 251.77C351.2 252.22 351.44 252.73 351.73 252.9C352.02 253.07 352.26 252.84 352.26 252.39C352.26 251.94 352.02 251.43 351.73 251.26C351.44 251.09 351.2 251.32 351.2 251.77Z" fill="#006975"/>
<path d="M352.43 256.37L354.32 257.46V255.07C354.32 254.57 354.01 253.98 353.64 253.77L353.12 253.47C352.74 253.25 352.44 253.48 352.44 253.99V256.38L352.43 256.37Z" fill="#006975"/>
<path d="M351.65 253.17L352.17 253.47V256.22L351.19 255.65V253.51C351.19 253.17 351.4 253.02 351.65 253.16V253.17Z" fill="#006975"/>
<path d="M355.54 254.28C355.54 254.73 355.3 254.96 355.01 254.79C354.72 254.62 354.48 254.12 354.48 253.66C354.48 253.2 354.72 252.98 355.01 253.15C355.3 253.32 355.54 253.82 355.54 254.28Z" fill="#006975"/>
<path d="M355.09 255.16L354.57 254.86V257.61L355.55 258.18V256.04C355.55 255.7 355.34 255.31 355.09 255.16Z" fill="#006975"/>
<path d="M346.33 207.9L324.12 195.08C323.52 194.73 323.04 194.98 323.04 195.63C323.04 196.28 323.52 197.08 324.12 197.43L346.33 210.25C346.93 210.6 347.41 210.35 347.41 209.7C347.41 209.05 346.93 208.25 346.33 207.9Z" fill="#E0E0E0"/>
<path d="M346.33 218.35L324.12 205.53C323.52 205.18 323.04 205.43 323.04 206.08C323.04 206.73 323.52 207.53 324.12 207.88L346.33 220.7C346.93 221.05 347.41 220.8 347.41 220.15C347.41 219.5 346.93 218.7 346.33 218.35Z" fill="#E0E0E0"/>
<path d="M346.33 228.8L324.12 215.98C323.52 215.63 323.04 215.88 323.04 216.53C323.04 217.18 323.52 217.98 324.12 218.33L346.33 231.15C346.93 231.5 347.41 231.25 347.41 230.6C347.41 229.95 346.93 229.15 346.33 228.8Z" fill="#E0E0E0"/>
<path d="M346.33 239.26L324.12 226.44C323.52 226.09 323.04 226.34 323.04 226.99C323.04 227.64 323.52 228.44 324.12 228.79L346.33 241.61C346.93 241.96 347.41 241.71 347.41 241.06C347.41 240.41 346.93 239.61 346.33 239.26Z" fill="#E0E0E0"/>
<path d="M346.33 249.71L324.12 236.89C323.52 236.54 323.04 236.79 323.04 237.44C323.04 238.09 323.52 238.89 324.12 239.24L346.33 252.06C346.93 252.41 347.41 252.16 347.41 251.51C347.41 250.86 346.93 250.06 346.33 249.71Z" fill="#E0E0E0"/>
<path d="M342.27 258.24L320.06 245.42C319.46 245.07 318.98 245.32 318.98 245.97C318.98 246.62 319.46 247.42 320.06 247.77L342.27 260.59C342.87 260.94 343.35 260.69 343.35 260.04C343.35 259.39 342.87 258.59 342.27 258.24Z" fill="#006975"/>
<path d="M342.27 265.31L320.06 252.49C319.46 252.14 318.98 252.39 318.98 253.04C318.98 253.69 319.46 254.49 320.06 254.84L342.27 267.66C342.87 268.01 343.35 267.76 343.35 267.11C343.35 266.46 342.87 265.66 342.27 265.31Z" fill="#E0E0E0"/>
<path d="M342.27 272.37L320.06 259.55C319.46 259.2 318.98 259.45 318.98 260.1C318.98 260.75 319.46 261.55 320.06 261.9L342.27 274.72C342.87 275.07 343.35 274.82 343.35 274.17C343.35 273.52 342.87 272.72 342.27 272.37Z" fill="#E0E0E0"/>
<path d="M337.94 276.85L315.73 264.03C315.13 263.68 314.65 263.93 314.65 264.58C314.65 265.23 315.13 266.03 315.73 266.38L337.94 279.2C338.54 279.55 339.02 279.3 339.02 278.65C339.02 278 338.54 277.2 337.94 276.85Z" fill="#E0E0E0"/>
<path d="M343.14 282.93L341.34 279.75C341.27 279.63 341.27 279.47 341.34 279.43L343.14 278.33C343.23 278.28 343.35 278.45 343.35 278.61V282.89C343.35 283.06 343.22 283.08 343.14 282.93Z" fill="#006975"/>
<path d="M337.94 283.89L315.73 271.07C315.13 270.72 314.65 270.97 314.65 271.62C314.65 272.27 315.13 273.07 315.73 273.42L337.94 286.24C338.54 286.59 339.02 286.34 339.02 285.69C339.02 285.04 338.54 284.24 337.94 283.89Z" fill="#E0E0E0"/>
<path d="M343.14 289.97L341.34 286.79C341.27 286.67 341.27 286.51 341.34 286.47L343.14 285.37C343.23 285.32 343.35 285.49 343.35 285.65V289.93C343.35 290.1 343.22 290.12 343.14 289.97Z" fill="#006975"/>
<path d="M337.94 290.93L315.73 278.11C315.13 277.76 314.65 278.01 314.65 278.66C314.65 279.31 315.13 280.11 315.73 280.46L337.94 293.28C338.54 293.63 339.02 293.38 339.02 292.73C339.02 292.08 338.54 291.28 337.94 290.93Z" fill="#E0E0E0"/>
<path d="M343.14 297L341.34 293.82C341.27 293.7 341.27 293.54 341.34 293.5L343.14 292.4C343.23 292.35 343.35 292.52 343.35 292.68V296.96C343.35 297.13 343.22 297.15 343.14 297Z" fill="#006975"/>
<path d="M337.94 297.96L315.73 285.14C315.13 284.79 314.65 285.04 314.65 285.69C314.65 286.34 315.13 287.14 315.73 287.49L337.94 300.31C338.54 300.66 339.02 300.41 339.02 299.76C339.02 299.11 338.54 298.31 337.94 297.96Z" fill="#E0E0E0"/>
<path d="M343.14 304.04L341.34 300.86C341.27 300.74 341.27 300.58 341.34 300.54L343.14 299.44C343.23 299.39 343.35 299.56 343.35 299.72V304C343.35 304.17 343.22 304.19 343.14 304.04Z" fill="#006975"/>
<path d="M337.94 305L315.73 292.18C315.13 291.83 314.65 292.08 314.65 292.73C314.65 293.38 315.13 294.18 315.73 294.53L337.94 307.35C338.54 307.7 339.02 307.45 339.02 306.8C339.02 306.15 338.54 305.35 337.94 305Z" fill="#E0E0E0"/>
<path d="M343.14 311.08L341.34 307.9C341.27 307.78 341.27 307.62 341.34 307.58L343.14 306.48C343.23 306.43 343.35 306.6 343.35 306.76V311.04C343.35 311.21 343.22 311.23 343.14 311.08Z" fill="#006975"/>
<path d="M337.94 312.04L315.73 299.22C315.13 298.87 314.65 299.12 314.65 299.77C314.65 300.42 315.13 301.22 315.73 301.57L337.94 314.39C338.54 314.74 339.02 314.49 339.02 313.84C339.02 313.19 338.54 312.39 337.94 312.04Z" fill="#E0E0E0"/>
<path d="M343.14 318.11L341.34 314.93C341.27 314.81 341.27 314.65 341.34 314.61L343.14 313.51C343.23 313.46 343.35 313.63 343.35 313.79V318.07C343.35 318.24 343.22 318.26 343.14 318.11Z" fill="#006975"/>
<path d="M337.94 319.07L315.73 306.25C315.13 305.9 314.65 306.15 314.65 306.8C314.65 307.45 315.13 308.25 315.73 308.6L337.94 321.42C338.54 321.77 339.02 321.52 339.02 320.87C339.02 320.22 338.54 319.42 337.94 319.07Z" fill="#E0E0E0"/>
<path d="M343.14 325.15L341.34 321.97C341.27 321.85 341.27 321.69 341.34 321.65L343.14 320.55C343.23 320.5 343.35 320.67 343.35 320.83V325.11C343.35 325.28 343.22 325.3 343.14 325.15Z" fill="#006975"/>
<path d="M337.94 326.11L315.73 313.29C315.13 312.94 314.65 313.19 314.65 313.84C314.65 314.49 315.13 315.29 315.73 315.64L337.94 328.46C338.54 328.81 339.02 328.56 339.02 327.91C339.02 327.26 338.54 326.46 337.94 326.11Z" fill="#E0E0E0"/>
<path d="M343.14 332.19L341.34 329.01C341.27 328.89 341.27 328.73 341.34 328.69L343.14 327.59C343.23 327.54 343.35 327.71 343.35 327.87V332.15C343.35 332.32 343.22 332.34 343.14 332.19Z" fill="#006975"/>
<path d="M293.52 178.52L220.53 136.38C219.93 136.03 219.45 135.2 219.45 134.5V115.89C219.45 115.2 219.93 114.92 220.53 115.26L293.52 157.39C294.12 157.74 294.6 158.57 294.6 159.26V177.88C294.6 178.57 294.12 178.85 293.52 178.5V178.52Z" fill="#F0F0F0"/>
<path d="M287.17 159.66L287.9 158.53C288.7 159.9 289.32 161.53 289.63 163.2L288.45 163.11C288.22 161.88 287.76 160.67 287.17 159.66Z" fill="#006975"/>
<path d="M285.1 157.42V155.5C286.15 156.1 287.11 157.18 287.9 158.52L287.17 159.65C286.59 158.66 285.88 157.86 285.1 157.42Z" fill="#006975"/>
<path d="M288.62 164.88C288.62 164.3 288.56 163.7 288.45 163.11L289.63 163.2C289.78 164 289.86 164.81 289.86 165.6C289.86 166.39 289.78 167.11 289.63 167.73L288.45 166.45C288.56 165.99 288.62 165.46 288.62 164.88Z" fill="#006975"/>
<path d="M280.57 157.96C280.88 156.65 281.5 155.73 282.3 155.29C283.09 154.86 284.05 154.9 285.1 155.5V157.42C284.33 156.97 283.61 156.95 283.03 157.27C282.44 157.59 281.98 158.27 281.75 159.24C281.64 159.7 281.58 160.23 281.58 160.81C281.58 161.39 281.64 161.99 281.75 162.58C281.98 163.81 282.44 165.02 283.03 166.03C283.61 167.02 284.32 167.82 285.1 168.26C285.87 168.71 286.59 168.73 287.17 168.41C287.76 168.09 288.22 167.41 288.45 166.44L289.63 167.72C289.32 169.03 288.7 169.95 287.9 170.39C287.11 170.82 286.15 170.78 285.1 170.18C284.05 169.58 283.09 168.5 282.3 167.16C281.5 165.79 280.88 164.16 280.57 162.49C280.42 161.69 280.34 160.88 280.34 160.09C280.34 159.3 280.42 158.58 280.57 157.96Z" fill="#051C2C"/>
<path d="M273.21 152.71L251 139.89C250.4 139.54 249.92 139.79 249.92 140.44C249.92 141.09 250.4 141.89 251 142.24L273.21 155.06C273.81 155.41 274.29 155.16 274.29 154.51C274.29 153.86 273.81 153.06 273.21 152.71Z" fill="#006975"/>
<path d="M273.21 157.44L234.75 135.24C234.15 134.89 233.67 135.14 233.67 135.79C233.67 136.44 234.15 137.24 234.75 137.59L273.21 159.79C273.81 160.14 274.29 159.89 274.29 159.24C274.29 158.59 273.81 157.79 273.21 157.44Z" fill="#E0E0E0"/>
<path d="M214.32 132.78L141.33 90.6401C140.73 90.2901 140.25 89.4601 140.25 88.7601V70.1501C140.25 69.4601 140.73 69.1801 141.33 69.5201L214.32 111.65C214.92 112 215.4 112.83 215.4 113.53V132.15C215.4 132.84 214.92 133.12 214.32 132.77V132.78Z" fill="#F0F0F0"/>
<path d="M205.24 111.3V109.38C206.29 109.98 207.25 111.06 208.04 112.4L207.31 113.53C206.73 112.54 206.02 111.74 205.24 111.3Z" fill="#006975"/>
<path d="M200.71 111.84C201.02 110.53 201.64 109.61 202.44 109.17C203.23 108.74 204.19 108.78 205.24 109.38V111.3C204.47 110.85 203.75 110.83 203.17 111.15C202.58 111.47 202.12 112.15 201.89 113.12C201.78 113.58 201.72 114.11 201.72 114.69C201.72 115.27 201.78 115.87 201.89 116.46C202.12 117.69 202.57 118.89 203.17 119.9C203.75 120.88 204.47 121.69 205.24 122.14C206.01 122.59 206.73 122.61 207.31 122.29C207.9 121.97 208.36 121.29 208.59 120.32C208.7 119.86 208.76 119.33 208.76 118.75C208.76 118.17 208.7 117.57 208.59 116.98C208.36 115.75 207.9 114.54 207.31 113.53L208.04 112.4C208.84 113.77 209.46 115.4 209.77 117.07C209.92 117.87 210 118.68 210 119.47C210 120.26 209.92 120.98 209.77 121.6C209.46 122.91 208.84 123.83 208.04 124.27C207.25 124.7 206.29 124.66 205.24 124.06C204.19 123.46 203.23 122.38 202.44 121.04C201.64 119.67 201.02 118.04 200.71 116.37C200.56 115.57 200.48 114.76 200.48 113.97C200.48 113.18 200.56 112.46 200.71 111.84Z" fill="#051C2C"/>
<path d="M193.37 106.59L171.16 93.7701C170.56 93.4201 170.08 93.6701 170.08 94.3201C170.08 94.9701 170.56 95.7701 171.16 96.1201L193.37 108.94C193.97 109.29 194.45 109.04 194.45 108.39C194.45 107.74 193.97 106.94 193.37 106.59Z" fill="#006975"/>
<path d="M193.37 111.32L154.91 89.1202C154.31 88.7702 153.83 89.0202 153.83 89.6702C153.83 90.3202 154.31 91.1202 154.91 91.4702L193.37 113.67C193.97 114.02 194.45 113.77 194.45 113.12C194.45 112.47 193.97 111.67 193.37 111.32Z" fill="#E0E0E0"/>
<path d="M286.09 183.62L270.51 174.6C269.91 174.25 269.43 174.5 269.43 175.15C269.43 175.8 269.91 176.6 270.51 176.95L286.09 185.97C286.69 186.32 287.17 186.07 287.17 185.42C287.17 184.77 286.69 183.97 286.09 183.62Z" fill="#006975"/>
<path d="M141.25 105.82V224.79C141.25 225.12 141.54 225.63 141.83 225.8L293.6 313.42V194.45C293.6 194.12 293.31 193.61 293.02 193.44L291.12 192.34C290.22 191.82 289.54 190.64 289.54 189.6V182.72C289.54 182.39 289.25 181.88 288.96 181.71L267.17 169.13V175.53C267.17 176.69 266.37 177.3 265.57 177.3C265.24 177.3 264.91 177.21 264.59 177.02L141.25 105.81M140.84 104.56C140.99 104.56 141.15 104.61 141.32 104.71L265.08 176.16C265.25 176.26 265.42 176.31 265.56 176.31C265.92 176.31 266.16 176.03 266.16 175.54V168.66C266.16 168.17 266.4 167.89 266.76 167.89C266.91 167.89 267.07 167.94 267.24 168.04L289.45 180.86C290.05 181.21 290.53 182.04 290.53 182.74V189.62C290.53 190.31 291.01 191.15 291.61 191.5L293.51 192.6C294.11 192.95 294.59 193.78 294.59 194.48V313.93C294.59 314.42 294.35 314.7 293.99 314.7C293.84 314.7 293.68 314.65 293.51 314.55L141.32 226.68C140.72 226.33 140.24 225.5 140.24 224.8V105.35C140.24 104.86 140.48 104.58 140.84 104.58V104.56Z" fill="#E0E0E0"/>
<path d="M284.82 199.65C285.01 199.65 285.19 199.6 285.35 199.51C285.71 199.3 285.92 198.89 285.92 198.38V193.84C285.92 192.98 285.33 191.96 284.59 191.53L272.52 184.57C272.08 184.31 271.61 184.29 271.25 184.49C270.89 184.7 270.68 185.11 270.68 185.62V190.16C270.68 191.02 271.27 192.04 272.01 192.47L284.08 199.43C284.33 199.57 284.58 199.64 284.82 199.64V199.65ZM284.08 192.4C284.52 192.66 284.91 193.33 284.91 193.84V198.38C284.91 198.55 284.86 198.64 284.84 198.65C284.82 198.66 284.72 198.65 284.57 198.57L272.5 191.61C272.06 191.35 271.67 190.68 271.67 190.17V185.63C271.67 185.46 271.72 185.37 271.74 185.36C271.76 185.35 271.86 185.36 272.01 185.44L284.08 192.4Z" fill="#E0E0E0"/>
<path d="M283.37 194.27L275.5 189.71C275.1 189.48 274.78 189.64 274.78 190.07C274.78 190.5 275.1 191.04 275.5 191.27L283.37 195.83C283.77 196.06 284.09 195.9 284.09 195.47C284.09 195.04 283.77 194.5 283.37 194.27Z" fill="#E0E0E0"/>
<path d="M273.67 188.96L273.02 189.89C273.02 189.89 272.95 189.89 272.92 189.83L272.27 188.15C272.24 188.07 272.27 187.99 272.32 188.02L273.62 188.77C273.67 188.8 273.7 188.91 273.67 188.95V188.96Z" fill="#006975"/>
<path d="M286.48 243.6C285.9 243.27 285.44 243.54 285.44 244.2C285.44 244.86 285.91 245.68 286.48 246.01C287.05 246.34 287.52 246.07 287.52 245.41C287.52 244.75 287.05 243.93 286.48 243.6Z" fill="#051C2C"/>
<path d="M278.36 234.22C277.78 233.89 277.32 234.16 277.32 234.82C277.32 235.48 277.79 236.3 278.36 236.63C278.93 236.96 279.4 236.69 279.4 236.03C279.4 235.37 278.93 234.55 278.36 234.22Z" fill="#051C2C"/>
<path d="M270.23 229.53C269.65 229.2 269.19 229.47 269.19 230.13C269.19 230.79 269.66 231.61 270.23 231.94C270.8 232.27 271.27 232 271.27 231.34C271.27 230.68 270.8 229.86 270.23 229.53Z" fill="#051C2C"/>
<path d="M262.11 226.9C261.53 226.57 261.07 226.84 261.07 227.5C261.07 228.16 261.54 228.98 262.11 229.31C262.68 229.64 263.15 229.37 263.15 228.71C263.15 228.05 262.68 227.23 262.11 226.9Z" fill="#051C2C"/>
<path d="M253.97 218.45C253.39 218.12 252.93 218.39 252.93 219.05C252.93 219.72 253.4 220.53 253.97 220.86C254.54 221.19 255.01 220.92 255.01 220.26C255.01 219.6 254.54 218.78 253.97 218.45Z" fill="#051C2C"/>
<path d="M245.86 215.46C245.28 215.13 244.82 215.4 244.82 216.06C244.82 216.72 245.29 217.54 245.86 217.87C246.43 218.2 246.9 217.93 246.9 217.27C246.9 216.61 246.43 215.79 245.86 215.46Z" fill="#051C2C"/>
<path d="M237.74 206.07C237.16 205.74 236.7 206.01 236.7 206.67C236.7 207.33 237.17 208.15 237.74 208.48C238.32 208.81 238.78 208.54 238.78 207.88C238.78 207.22 238.31 206.4 237.74 206.07Z" fill="#051C2C"/>
<path d="M229.61 203.73C229.03 203.4 228.57 203.67 228.57 204.33C228.57 204.99 229.04 205.81 229.61 206.14C230.18 206.47 230.65 206.2 230.65 205.54C230.65 204.88 230.18 204.06 229.61 203.73Z" fill="#051C2C"/>
<path d="M221.49 177.93C220.91 177.6 220.45 177.87 220.45 178.53C220.45 179.19 220.92 180.01 221.49 180.34C222.06 180.67 222.53 180.4 222.53 179.74C222.53 179.08 222.06 178.26 221.49 177.93Z" fill="#051C2C"/>
<path d="M213.36 192C212.78 191.67 212.32 191.94 212.32 192.6C212.32 193.26 212.79 194.08 213.36 194.41C213.93 194.74 214.4 194.47 214.4 193.81C214.4 193.15 213.93 192.33 213.36 192Z" fill="#051C2C"/>
<path d="M205.24 192C204.66 191.67 204.2 191.94 204.2 192.6C204.2 193.26 204.67 194.08 205.24 194.41C205.81 194.74 206.28 194.47 206.28 193.81C206.28 193.15 205.81 192.33 205.24 192Z" fill="#051C2C"/>
<path d="M197.12 192C196.54 191.67 196.08 191.94 196.08 192.6C196.08 193.26 196.55 194.08 197.12 194.41C197.69 194.74 198.16 194.47 198.16 193.81C198.16 193.15 197.69 192.33 197.12 192Z" fill="#051C2C"/>
<path d="M188.99 177.93C188.41 177.6 187.95 177.87 187.95 178.53C187.95 179.19 188.42 180.01 188.99 180.34C189.56 180.67 190.03 180.4 190.03 179.74C190.03 179.08 189.56 178.26 188.99 177.93Z" fill="#051C2C"/>
<path d="M180.87 175.24C180.29 174.91 179.83 175.18 179.83 175.84C179.83 176.5 180.3 177.32 180.87 177.65C181.44 177.98 181.91 177.71 181.91 177.05C181.91 176.39 181.44 175.57 180.87 175.24Z" fill="#051C2C"/>
<path d="M172.72 163.86C172.14 163.53 171.68 163.8 171.68 164.46C171.68 165.12 172.15 165.94 172.72 166.27C173.3 166.6 173.76 166.33 173.76 165.67C173.76 165.01 173.29 164.19 172.72 163.86Z" fill="#051C2C"/>
<path d="M164.62 163.86C164.04 163.53 163.58 163.8 163.58 164.46C163.58 165.12 164.05 165.94 164.62 166.27C165.2 166.6 165.66 166.33 165.66 165.67C165.66 165.01 165.19 164.19 164.62 163.86Z" fill="#051C2C"/>
<path d="M156.5 163.86C155.92 163.53 155.46 163.8 155.46 164.46C155.46 165.12 155.93 165.94 156.5 166.27C157.08 166.6 157.54 166.33 157.54 165.67C157.54 165.01 157.07 164.19 156.5 163.86Z" fill="#051C2C"/>
<path d="M148.37 159.17C147.79 158.84 147.33 159.11 147.33 159.77C147.33 160.43 147.8 161.25 148.37 161.58C148.94 161.91 149.41 161.64 149.41 160.98C149.41 160.32 148.94 159.5 148.37 159.17Z" fill="#051C2C"/>
<path d="M286.5 245.07C286.56 245.07 286.62 245.05 286.66 245.01C286.76 244.92 286.78 244.76 286.68 244.66L278.48 235.23C278.48 235.23 278.44 235.19 278.42 235.18L270.35 230.52L262.24 227.89L254.16 219.49C254.16 219.49 254.1 219.44 254.07 219.43L246.01 216.46L237.93 207.13C237.93 207.13 237.86 207.07 237.81 207.05L229.82 204.74L221.74 179.07C221.71 178.98 221.63 178.91 221.53 178.9C221.44 178.89 221.34 178.94 221.29 179.02L213.24 192.97H205.24H197.28L189.23 179.02C189.2 178.97 189.15 178.93 189.09 178.91L181.04 176.24L172.96 164.93C172.91 164.86 172.84 164.83 172.76 164.83H156.58L148.51 160.17C148.39 160.1 148.24 160.14 148.17 160.26C148.1 160.38 148.14 160.53 148.26 160.6L156.38 165.29C156.38 165.29 156.46 165.32 156.5 165.32H172.62L180.67 176.59C180.7 176.63 180.74 176.67 180.79 176.68L188.82 179.35L196.9 193.34C196.95 193.42 197.03 193.46 197.12 193.46H205.22H213.36C213.45 193.46 213.53 193.41 213.58 193.34L221.42 179.76L229.37 205.01C229.4 205.09 229.46 205.15 229.54 205.18L237.59 207.5L245.67 216.83C245.67 216.83 245.73 216.89 245.77 216.9L253.84 219.87L261.92 228.28C261.92 228.28 261.98 228.33 262.02 228.34L270.14 230.97L278.12 235.58L286.3 244.98C286.35 245.04 286.42 245.07 286.49 245.07H286.5Z" fill="#EF4351"/>
<path d="M286.48 249.99C286.65 249.99 286.82 249.9 286.91 249.74C287.05 249.5 286.97 249.2 286.73 249.06L148.62 169.32C148.38 169.18 148.08 169.26 147.94 169.5C147.8 169.74 147.88 170.04 148.12 170.18L286.23 249.92C286.31 249.97 286.39 249.99 286.48 249.99Z" fill="#E0E0E0"/>
<path d="M286.48 238.91C285.9 238.58 285.44 238.85 285.44 239.51C285.44 240.17 285.91 240.99 286.48 241.32C287.05 241.65 287.52 241.38 287.52 240.72C287.52 240.06 287.05 239.24 286.48 238.91Z" fill="#051C2C"/>
<path d="M278.36 224.84C277.78 224.51 277.32 224.78 277.32 225.44C277.32 226.1 277.79 226.92 278.36 227.25C278.93 227.58 279.4 227.31 279.4 226.65C279.4 225.99 278.93 225.17 278.36 224.84Z" fill="#051C2C"/>
<path d="M270.23 223.08C269.65 222.75 269.19 223.02 269.19 223.68C269.19 224.34 269.66 225.16 270.23 225.49C270.81 225.82 271.27 225.55 271.27 224.89C271.27 224.23 270.8 223.41 270.23 223.08Z" fill="#051C2C"/>
<path d="M262.11 206.07C261.53 205.74 261.07 206.01 261.07 206.67C261.07 207.33 261.54 208.15 262.11 208.48C262.69 208.81 263.15 208.54 263.15 207.88C263.15 207.22 262.68 206.4 262.11 206.07Z" fill="#051C2C"/>
<path d="M253.97 210.76C253.39 210.43 252.93 210.7 252.93 211.36C252.93 212.03 253.4 212.84 253.97 213.17C254.55 213.5 255.01 213.23 255.01 212.57C255.01 211.91 254.54 211.09 253.97 210.76Z" fill="#051C2C"/>
<path d="M245.86 208.42C245.28 208.09 244.82 208.36 244.82 209.02C244.82 209.69 245.29 210.5 245.86 210.83C246.44 211.16 246.9 210.89 246.9 210.23C246.9 209.57 246.43 208.75 245.86 208.42Z" fill="#051C2C"/>
<path d="M237.74 201.38C237.16 201.05 236.7 201.32 236.7 201.98C236.7 202.64 237.17 203.46 237.74 203.79C238.32 204.12 238.78 203.85 238.78 203.19C238.78 202.53 238.31 201.71 237.74 201.38Z" fill="#051C2C"/>
<path d="M229.61 192C229.03 191.67 228.57 191.94 228.57 192.6C228.57 193.26 229.04 194.08 229.61 194.41C230.18 194.74 230.65 194.47 230.65 193.81C230.65 193.15 230.18 192.33 229.61 192Z" fill="#051C2C"/>
<path d="M221.49 189.66C220.91 189.33 220.45 189.6 220.45 190.26C220.45 190.92 220.92 191.74 221.49 192.07C222.06 192.4 222.53 192.13 222.53 191.47C222.53 190.81 222.06 189.99 221.49 189.66Z" fill="#051C2C"/>
<path d="M213.36 182.62C212.78 182.29 212.32 182.56 212.32 183.22C212.32 183.88 212.79 184.7 213.36 185.03C213.93 185.36 214.4 185.09 214.4 184.43C214.4 183.77 213.93 182.95 213.36 182.62Z" fill="#051C2C"/>
<path d="M205.24 182.62C204.66 182.29 204.2 182.56 204.2 183.22C204.2 183.88 204.67 184.7 205.24 185.03C205.81 185.36 206.28 185.09 206.28 184.43C206.28 183.77 205.81 182.95 205.24 182.62Z" fill="#051C2C"/>
<path d="M197.12 163.86C196.54 163.53 196.08 163.8 196.08 164.46C196.08 165.12 196.55 165.94 197.12 166.27C197.69 166.6 198.16 166.33 198.16 165.67C198.16 165.01 197.69 164.19 197.12 163.86Z" fill="#051C2C"/>
<path d="M188.99 173.17C188.41 172.84 187.95 173.11 187.95 173.77C187.95 174.43 188.42 175.25 188.99 175.58C189.56 175.91 190.03 175.64 190.03 174.98C190.03 174.32 189.56 173.5 188.99 173.17Z" fill="#051C2C"/>
<path d="M180.87 163.86C180.29 163.53 179.83 163.8 179.83 164.46C179.83 165.12 180.3 165.94 180.87 166.27C181.45 166.6 181.91 166.33 181.91 165.67C181.91 165.01 181.44 164.19 180.87 163.86Z" fill="#051C2C"/>
<path d="M172.74 159.17C172.16 158.84 171.7 159.11 171.7 159.77C171.7 160.43 172.17 161.25 172.74 161.58C173.31 161.91 173.78 161.64 173.78 160.98C173.78 160.32 173.31 159.5 172.74 159.17Z" fill="#051C2C"/>
<path d="M164.62 159.17C164.04 158.84 163.58 159.11 163.58 159.77C163.58 160.43 164.05 161.25 164.62 161.58C165.2 161.91 165.66 161.64 165.66 160.98C165.66 160.32 165.19 159.5 164.62 159.17Z" fill="#051C2C"/>
<path d="M156.5 154.48C155.92 154.15 155.46 154.42 155.46 155.08C155.46 155.74 155.93 156.56 156.5 156.89C157.07 157.22 157.54 156.95 157.54 156.29C157.54 155.63 157.07 154.81 156.5 154.48Z" fill="#051C2C"/>
<path d="M148.37 154.48C147.79 154.15 147.33 154.42 147.33 155.08C147.33 155.74 147.8 156.56 148.37 156.89C148.94 157.22 149.41 156.95 149.41 156.29C149.41 155.63 148.94 154.81 148.37 154.48Z" fill="#051C2C"/>
<path d="M286.48 240.36C286.48 240.36 286.57 240.35 286.6 240.33C286.72 240.26 286.76 240.11 286.69 239.99L278.51 225.88C278.47 225.82 278.42 225.78 278.35 225.76L270.4 224.06L262.33 207.16C262.3 207.1 262.24 207.05 262.18 207.03C262.11 207.01 262.04 207.02 261.98 207.05L253.94 211.69L245.98 209.38L237.91 202.39L229.8 193.03C229.8 193.03 229.73 192.97 229.68 192.95L221.61 190.62L213.53 183.62C213.53 183.62 213.43 183.56 213.37 183.56H205.41L197.35 164.95C197.32 164.87 197.24 164.82 197.16 164.8C197.08 164.79 196.99 164.82 196.93 164.88L189 174.04L181.07 164.88C181.07 164.88 181.03 164.84 181.01 164.83L172.86 160.12C172.86 160.12 172.78 160.09 172.74 160.09H164.68L156.64 155.45C156.64 155.45 156.56 155.42 156.52 155.42H148.4C148.26 155.42 148.15 155.53 148.15 155.67C148.15 155.81 148.26 155.92 148.4 155.92H156.46L164.5 160.56C164.5 160.56 164.58 160.59 164.62 160.59H172.68L180.74 165.24L188.84 174.59C188.94 174.7 189.12 174.7 189.22 174.59L197.08 165.51L205.05 183.91C205.09 184 205.18 184.06 205.28 184.06H213.31L221.36 191.03C221.36 191.03 221.42 191.07 221.45 191.08L229.5 193.4L237.59 202.73L245.73 209.78C245.73 209.78 245.79 209.82 245.82 209.83L253.94 212.18C254.01 212.2 254.08 212.18 254.13 212.16L262.03 207.6L270.04 224.36C270.07 224.43 270.14 224.48 270.21 224.5L278.17 226.2L286.3 240.21C286.35 240.29 286.43 240.33 286.52 240.33L286.48 240.36Z" fill="#051C2C"/>
<g opacity="0.3">
<path d="M286.48 238.91C285.9 238.58 285.44 238.85 285.44 239.51C285.44 240.17 285.91 240.99 286.48 241.32C287.05 241.65 287.52 241.38 287.52 240.72C287.52 240.06 287.05 239.24 286.48 238.91Z" fill="black"/>
<path d="M278.36 224.84C277.78 224.51 277.32 224.78 277.32 225.44C277.32 226.1 277.79 226.92 278.36 227.25C278.93 227.58 279.4 227.31 279.4 226.65C279.4 225.99 278.93 225.17 278.36 224.84Z" fill="black"/>
<path d="M270.23 223.08C269.65 222.75 269.19 223.02 269.19 223.68C269.19 224.34 269.66 225.16 270.23 225.49C270.81 225.82 271.27 225.55 271.27 224.89C271.27 224.23 270.8 223.41 270.23 223.08Z" fill="black"/>
<path d="M262.11 206.07C261.53 205.74 261.07 206.01 261.07 206.67C261.07 207.33 261.54 208.15 262.11 208.48C262.69 208.81 263.15 208.54 263.15 207.88C263.15 207.22 262.68 206.4 262.11 206.07Z" fill="black"/>
<path d="M253.97 210.76C253.39 210.43 252.93 210.7 252.93 211.36C252.93 212.03 253.4 212.84 253.97 213.17C254.55 213.5 255.01 213.23 255.01 212.57C255.01 211.91 254.54 211.09 253.97 210.76Z" fill="black"/>
<path d="M245.86 208.42C245.28 208.09 244.82 208.36 244.82 209.02C244.82 209.69 245.29 210.5 245.86 210.83C246.44 211.16 246.9 210.89 246.9 210.23C246.9 209.57 246.43 208.75 245.86 208.42Z" fill="black"/>
<path d="M237.74 201.38C237.16 201.05 236.7 201.32 236.7 201.98C236.7 202.64 237.17 203.46 237.74 203.79C238.32 204.12 238.78 203.85 238.78 203.19C238.78 202.53 238.31 201.71 237.74 201.38Z" fill="black"/>
<path d="M229.61 192C229.03 191.67 228.57 191.94 228.57 192.6C228.57 193.26 229.04 194.08 229.61 194.41C230.18 194.74 230.65 194.47 230.65 193.81C230.65 193.15 230.18 192.33 229.61 192Z" fill="black"/>
<path d="M221.49 189.66C220.91 189.33 220.45 189.6 220.45 190.26C220.45 190.92 220.92 191.74 221.49 192.07C222.06 192.4 222.53 192.13 222.53 191.47C222.53 190.81 222.06 189.99 221.49 189.66Z" fill="black"/>
<path d="M213.36 182.62C212.78 182.29 212.32 182.56 212.32 183.22C212.32 183.88 212.79 184.7 213.36 185.03C213.93 185.36 214.4 185.09 214.4 184.43C214.4 183.77 213.93 182.95 213.36 182.62Z" fill="black"/>
<path d="M205.24 182.62C204.66 182.29 204.2 182.56 204.2 183.22C204.2 183.88 204.67 184.7 205.24 185.03C205.81 185.36 206.28 185.09 206.28 184.43C206.28 183.77 205.81 182.95 205.24 182.62Z" fill="black"/>
<path d="M197.12 163.86C196.54 163.53 196.08 163.8 196.08 164.46C196.08 165.12 196.55 165.94 197.12 166.27C197.69 166.6 198.16 166.33 198.16 165.67C198.16 165.01 197.69 164.19 197.12 163.86Z" fill="black"/>
<path d="M188.99 173.17C188.41 172.84 187.95 173.11 187.95 173.77C187.95 174.43 188.42 175.25 188.99 175.58C189.56 175.91 190.03 175.64 190.03 174.98C190.03 174.32 189.56 173.5 188.99 173.17Z" fill="black"/>
<path d="M180.87 163.86C180.29 163.53 179.83 163.8 179.83 164.46C179.83 165.12 180.3 165.94 180.87 166.27C181.45 166.6 181.91 166.33 181.91 165.67C181.91 165.01 181.44 164.19 180.87 163.86Z" fill="black"/>
<path d="M172.74 159.17C172.16 158.84 171.7 159.11 171.7 159.77C171.7 160.43 172.17 161.25 172.74 161.58C173.31 161.91 173.78 161.64 173.78 160.98C173.78 160.32 173.31 159.5 172.74 159.17Z" fill="black"/>
<path d="M164.62 159.17C164.04 158.84 163.58 159.11 163.58 159.77C163.58 160.43 164.05 161.25 164.62 161.58C165.2 161.91 165.66 161.64 165.66 160.98C165.66 160.32 165.19 159.5 164.62 159.17Z" fill="black"/>
<path d="M156.5 154.48C155.92 154.15 155.46 154.42 155.46 155.08C155.46 155.74 155.93 156.56 156.5 156.89C157.07 157.22 157.54 156.95 157.54 156.29C157.54 155.63 157.07 154.81 156.5 154.48Z" fill="black"/>
<path d="M148.37 154.48C147.79 154.15 147.33 154.42 147.33 155.08C147.33 155.74 147.8 156.56 148.37 156.89C148.94 157.22 149.41 156.95 149.41 156.29C149.41 155.63 148.94 154.81 148.37 154.48Z" fill="black"/>
<path d="M286.48 240.36C286.48 240.36 286.57 240.35 286.6 240.33C286.72 240.26 286.76 240.11 286.69 239.99L278.51 225.88C278.47 225.82 278.42 225.78 278.35 225.76L270.4 224.06L262.33 207.16C262.3 207.1 262.24 207.05 262.18 207.03C262.11 207.01 262.04 207.02 261.98 207.05L253.94 211.69L245.98 209.38L237.91 202.39L229.8 193.03C229.8 193.03 229.73 192.97 229.68 192.95L221.61 190.62L213.53 183.62C213.53 183.62 213.43 183.56 213.37 183.56H205.41L197.35 164.95C197.32 164.87 197.24 164.82 197.16 164.8C197.08 164.79 196.99 164.82 196.93 164.88L189 174.04L181.07 164.88C181.07 164.88 181.03 164.84 181.01 164.83L172.86 160.12C172.86 160.12 172.78 160.09 172.74 160.09H164.68L156.64 155.45C156.64 155.45 156.56 155.42 156.52 155.42H148.4C148.26 155.42 148.15 155.53 148.15 155.67C148.15 155.81 148.26 155.92 148.4 155.92H156.46L164.5 160.56C164.5 160.56 164.58 160.59 164.62 160.59H172.68L180.74 165.24L188.84 174.59C188.94 174.7 189.12 174.7 189.22 174.59L197.08 165.51L205.05 183.91C205.09 184 205.18 184.06 205.28 184.06H213.31L221.36 191.03C221.36 191.03 221.42 191.07 221.45 191.08L229.5 193.4L237.59 202.73L245.73 209.78C245.73 209.78 245.79 209.82 245.82 209.83L253.94 212.18C254.01 212.2 254.08 212.18 254.13 212.16L262.03 207.6L270.04 224.36C270.07 224.43 270.14 224.48 270.21 224.5L278.17 226.2L286.3 240.21C286.35 240.29 286.43 240.33 286.52 240.33L286.48 240.36Z" fill="#EF4351"/>
</g>
<path d="M282.22 204.1L274.35 199.54C273.95 199.31 273.63 199.47 273.63 199.9C273.63 200.33 273.95 200.87 274.35 201.1L282.22 205.66C282.62 205.89 282.94 205.73 282.94 205.3C282.94 204.87 282.62 204.33 282.22 204.1Z" fill="#E0E0E0"/>
<path d="M286.48 206.07C285.9 205.74 285.44 206.01 285.44 206.67C285.44 207.33 285.91 208.15 286.48 208.48C287.05 208.81 287.52 208.54 287.52 207.88C287.52 207.22 287.05 206.4 286.48 206.07Z" fill="#051C2C"/>
<path opacity="0.3" d="M286.48 206.07C285.9 205.74 285.44 206.01 285.44 206.67C285.44 207.33 285.91 208.15 286.48 208.48C287.05 208.81 287.52 208.54 287.52 207.88C287.52 207.22 287.05 206.4 286.48 206.07Z" fill="black"/>
<path d="M282.22 208.78L274.35 204.22C273.95 203.99 273.63 204.15 273.63 204.58C273.63 205.01 273.95 205.55 274.35 205.78L282.22 210.34C282.62 210.57 282.94 210.41 282.94 209.98C282.94 209.55 282.62 209.01 282.22 208.78Z" fill="#E0E0E0"/>
<path d="M286.48 210.76C285.9 210.43 285.44 210.7 285.44 211.36C285.44 212.02 285.91 212.84 286.48 213.17C287.05 213.5 287.52 213.23 287.52 212.57C287.52 211.91 287.05 211.09 286.48 210.76Z" fill="#051C2C"/>
<path d="M286.48 273.26C286.54 273.26 286.61 273.24 286.65 273.19C286.75 273.09 286.75 272.94 286.65 272.84L282.53 268.6L278.48 268.09L274.39 262.81L270.3 263.37L266.33 259.78L262.27 257.35L258.13 251.62L254.02 252.91L250.07 249.38C249.97 249.29 249.81 249.3 249.72 249.4C249.63 249.5 249.64 249.66 249.74 249.75L253.9 253.47L257.93 252.21L261.96 257.76L266.02 260.19L270.13 263.91L274.16 263.36L278.2 268.58L282.28 269.1L286.28 273.21C286.33 273.26 286.39 273.29 286.46 273.29L286.48 273.26Z" fill="#051C2C"/>
<path d="M285.75 276.49L250.65 256.15C250.25 255.92 249.93 256.08 249.93 256.51C249.93 256.94 250.25 257.48 250.65 257.71L285.75 278.05C286.15 278.28 286.47 278.12 286.47 277.69C286.47 277.26 286.15 276.72 285.75 276.49Z" fill="#E0E0E0"/>
<path d="M285.75 253.03L277.88 248.47C277.48 248.24 277.16 248.4 277.16 248.83C277.16 249.26 277.48 249.8 277.88 250.03L285.75 254.59C286.15 254.82 286.47 254.66 286.47 254.23C286.47 253.8 286.15 253.26 285.75 253.03Z" fill="#E0E0E0"/>
<path d="M286.48 301.38C286.54 301.38 286.61 301.36 286.65 301.31C286.75 301.21 286.75 301.06 286.65 300.96L282.53 296.72L278.46 296.2L274.36 292.61L270.41 291.53L266.29 283.32L262.16 285.34L258.17 281.83H258.1L254.14 281.07L250.14 274.16C250.07 274.04 249.92 274 249.8 274.07C249.68 274.14 249.64 274.29 249.71 274.41L253.82 281.52L257.94 282.3L262.08 285.94L266.07 283.99L270.07 291.96L274.18 293.08L278.26 296.68L282.31 297.19L286.31 301.3C286.36 301.35 286.42 301.38 286.49 301.38H286.48Z" fill="#051C2C"/>
<g opacity="0.3">
<path d="M286.48 301.38C286.54 301.38 286.61 301.36 286.65 301.31C286.75 301.21 286.75 301.06 286.65 300.96L282.53 296.72L278.46 296.2L274.36 292.61L270.41 291.53L266.29 283.32L262.16 285.34L258.17 281.83H258.1L254.14 281.07L250.14 274.16C250.07 274.04 249.92 274 249.8 274.07C249.68 274.14 249.64 274.29 249.71 274.41L253.82 281.52L257.94 282.3L262.08 285.94L266.07 283.99L270.07 291.96L274.18 293.08L278.26 296.68L282.31 297.19L286.31 301.3C286.36 301.35 286.42 301.38 286.49 301.38H286.48Z" fill="black"/>
</g>
<path d="M285.75 304.61L250.65 284.27C250.25 284.04 249.93 284.2 249.93 284.63C249.93 285.06 250.25 285.6 250.65 285.83L285.75 306.17C286.15 306.4 286.47 306.24 286.47 305.81C286.47 305.38 286.15 304.84 285.75 304.61Z" fill="#E0E0E0"/>
<path d="M285.75 281.15L277.88 276.59C277.48 276.36 277.16 276.52 277.16 276.95C277.16 277.38 277.48 277.92 277.88 278.15L285.75 282.71C286.15 282.94 286.47 282.78 286.47 282.34C286.47 281.91 286.15 281.37 285.75 281.14V281.15Z" fill="#E0E0E0"/>
<path d="M237.74 245.06C237.81 245.06 237.89 245.03 237.94 244.97C238.03 244.86 238.01 244.7 237.9 244.62L233.84 241.38L229.75 236.71L225.6 236.11L221.64 235.22L217.54 230.38L213.5 231.09L209.45 224.68L205.34 224.75L201.36 221.19C201.26 221.1 201.1 221.11 201.01 221.21C200.92 221.31 200.93 221.47 201.03 221.56L205.16 225.25L209.19 225.18L213.27 231.64L217.36 230.92L221.38 235.67L225.52 236.6L229.51 237.18L233.51 241.75L237.6 245.02C237.6 245.02 237.7 245.07 237.76 245.07L237.74 245.06Z" fill="#051C2C"/>
<path d="M237 248.29L201.9 227.95C201.5 227.72 201.18 227.88 201.18 228.31C201.18 228.74 201.5 229.28 201.9 229.51L237 249.85C237.4 250.08 237.72 249.92 237.72 249.49C237.72 249.06 237.4 248.52 237 248.29Z" fill="#E0E0E0"/>
<path d="M237 224.83L229.13 220.27C228.73 220.04 228.41 220.2 228.41 220.63C228.41 221.06 228.73 221.6 229.13 221.83L237 226.39C237.4 226.62 237.72 226.46 237.72 226.03C237.72 225.6 237.4 225.06 237 224.83Z" fill="#E0E0E0"/>
<path d="M237.74 273.18C237.74 273.18 237.83 273.17 237.87 273.14C237.99 273.07 238.03 272.91 237.95 272.8L233.8 265.99L229.63 266.76L225.7 265.69L221.64 260.73L217.6 259.71L213.49 252.39L209.29 253.61L205.35 252.86L201.35 249.3C201.25 249.21 201.09 249.22 201 249.32C200.91 249.42 200.92 249.58 201.02 249.67L205.12 253.32H205.19L209.32 254.12L213.25 252.98L217.27 260.14L221.36 261.17L225.42 266.12L225.5 266.14L229.62 267.26H229.68L233.57 266.53L237.54 273.04C237.59 273.12 237.67 273.16 237.75 273.16L237.74 273.18Z" fill="#051C2C"/>
<g opacity="0.3">
<path d="M237.74 273.18C237.74 273.18 237.83 273.17 237.87 273.14C237.99 273.07 238.03 272.91 237.95 272.8L233.8 265.99L229.63 266.76L225.7 265.69L221.64 260.73L217.6 259.71L213.49 252.39L209.29 253.61L205.35 252.86L201.35 249.3C201.25 249.21 201.09 249.22 201 249.32C200.91 249.42 200.92 249.58 201.02 249.67L205.12 253.32H205.19L209.32 254.12L213.25 252.98L217.27 260.14L221.36 261.17L225.42 266.12L225.5 266.14L229.62 267.26H229.68L233.57 266.53L237.54 273.04C237.59 273.12 237.67 273.16 237.75 273.16L237.74 273.18Z" fill="black"/>
</g>
<path d="M237 276.41L201.9 256.07C201.5 255.84 201.18 256 201.18 256.43C201.18 256.86 201.5 257.4 201.9 257.63L237 277.97C237.4 278.2 237.72 278.04 237.72 277.61C237.72 277.18 237.4 276.64 237 276.41Z" fill="#E0E0E0"/>
<path d="M237 252.94L229.13 248.38C228.73 248.15 228.41 248.31 228.41 248.74C228.41 249.17 228.73 249.71 229.13 249.94L237 254.5C237.4 254.73 237.72 254.57 237.72 254.14C237.72 253.71 237.4 253.17 237 252.94Z" fill="#E0E0E0"/>
<path d="M184.93 199.42C183.2 198.42 181.6 198.37 180.3 199.08L184.93 211.56V199.42Z" fill="#051C2C"/>
<path d="M189.56 204.42C188.26 202.21 186.66 200.42 184.93 199.42V211.56L189.56 204.42Z" fill="#051C2C"/>
<path d="M192.43 212.13C191.91 209.37 190.89 206.67 189.56 204.41L184.93 211.55L192.43 212.13Z" fill="#051C2C"/>
<path opacity="0.3" d="M189.56 204.42C190.89 206.68 191.91 209.38 192.43 212.14L184.93 211.56V199.42C186.66 200.42 188.26 202.21 189.56 204.42Z" fill="black"/>
<path d="M180.3 199.07C178.97 199.79 177.95 201.31 177.43 203.48L184.93 211.56L180.3 199.08V199.07Z" fill="#051C2C"/>
<path d="M192.43 219.64C192.68 218.6 192.82 217.42 192.82 216.11C192.82 214.8 192.68 213.46 192.43 212.14L184.93 211.56L192.43 219.64Z" fill="#051C2C"/>
<path d="M177.43 210.98C177.95 213.74 178.97 216.44 180.3 218.7L184.93 211.56L177.43 210.98Z" fill="#051C2C"/>
<path d="M184.93 223.7C186.66 224.7 188.26 224.75 189.56 224.04L184.93 211.56V223.7Z" fill="#051C2C"/>
<path d="M192.43 219.64L184.93 211.56L189.56 224.04C190.89 223.32 191.91 221.8 192.43 219.63V219.64Z" fill="#051C2C"/>
<path d="M177.43 203.48C177.18 204.52 177.04 205.7 177.04 207.01C177.04 208.32 177.18 209.66 177.43 210.98L184.93 211.56L177.43 203.48Z" fill="#051C2C"/>
<path d="M180.3 218.7C181.6 220.91 183.2 222.7 184.93 223.7V211.56L180.3 218.7Z" fill="#051C2C"/>
<path d="M188.86 229.89L180.99 225.33C180.59 225.1 180.27 225.26 180.27 225.69C180.27 226.12 180.59 226.66 180.99 226.89L188.86 231.45C189.26 231.68 189.58 231.52 189.58 231.09C189.58 230.66 189.26 230.12 188.86 229.89Z" fill="#006975"/>
<path d="M190.6 235.59L179.26 229.01C178.86 228.78 178.54 228.94 178.54 229.37C178.54 229.8 178.86 230.34 179.26 230.57L190.6 237.15C191 237.38 191.32 237.22 191.32 236.78C191.32 236.35 191 235.81 190.6 235.58V235.59Z" fill="#E0E0E0"/>
<path d="M190.6 240.3L179.26 233.72C178.86 233.49 178.54 233.65 178.54 234.09C178.54 234.53 178.86 235.06 179.26 235.29L190.6 241.87C191 242.1 191.32 241.94 191.32 241.51C191.32 241.08 191 240.54 190.6 240.31V240.3Z" fill="#E0E0E0"/>
<path d="M190.6 245L179.26 238.42C178.86 238.19 178.54 238.35 178.54 238.78C178.54 239.21 178.86 239.75 179.26 239.98L190.6 246.56C191 246.79 191.32 246.63 191.32 246.2C191.32 245.77 191 245.23 190.6 245Z" fill="#E0E0E0"/>
<path d="M156.5 182.94C154.77 181.94 153.17 181.89 151.87 182.6L156.5 195.08V182.94Z" fill="#051C2C"/>
<path d="M161.13 187.94C159.83 185.73 158.23 183.94 156.5 182.94V195.08L161.13 187.94Z" fill="#051C2C"/>
<path d="M163.99 195.66C163.47 192.9 162.45 190.2 161.12 187.94L156.49 195.08L163.99 195.66Z" fill="#051C2C"/>
<path d="M151.87 182.59C150.54 183.31 149.52 184.83 149 187L156.5 195.08L151.87 182.6V182.59Z" fill="#051C2C"/>
<path d="M163.99 203.16C164.24 202.12 164.38 200.94 164.38 199.63C164.38 198.32 164.24 196.98 163.99 195.66L156.49 195.08L163.99 203.16Z" fill="#051C2C"/>
<path d="M149 194.5C149.52 197.26 150.54 199.96 151.87 202.22L156.5 195.08L149 194.5Z" fill="#051C2C"/>
<path d="M156.5 207.22C158.23 208.22 159.83 208.27 161.13 207.56L156.5 195.08V207.22Z" fill="#051C2C"/>
<path d="M163.99 203.16L156.49 195.08L161.12 207.56C162.45 206.84 163.47 205.32 163.99 203.15V203.16Z" fill="#051C2C"/>
<path opacity="0.3" d="M161.13 187.94C162.46 190.2 163.48 192.9 164 195.66C164.25 196.99 164.39 198.32 164.39 199.63C164.39 200.94 164.25 202.12 164 203.16C163.48 205.32 162.46 206.84 161.13 207.57L156.5 195.09V182.95C158.23 183.95 159.83 185.74 161.13 187.95V187.94Z" fill="black"/>
<path d="M149 187C148.75 188.04 148.61 189.22 148.61 190.53C148.61 191.84 148.75 193.18 149 194.5L156.5 195.08L149 187Z" fill="#051C2C"/>
<path d="M151.87 202.22C153.17 204.43 154.77 206.22 156.5 207.22V195.08L151.87 202.22Z" fill="#051C2C"/>
<path d="M160.43 213.47L152.56 208.91C152.16 208.68 151.84 208.84 151.84 209.27C151.84 209.7 152.16 210.24 152.56 210.47L160.43 215.03C160.83 215.26 161.15 215.1 161.15 214.67C161.15 214.24 160.83 213.7 160.43 213.47Z" fill="#006975"/>
<path d="M162.16 219.18L150.82 212.6C150.42 212.37 150.1 212.53 150.1 212.96C150.1 213.39 150.42 213.93 150.82 214.16L162.16 220.74C162.56 220.97 162.88 220.81 162.88 220.37C162.88 219.94 162.56 219.4 162.16 219.17V219.18Z" fill="#E0E0E0"/>
<path d="M162.16 223.88L150.82 217.3C150.42 217.07 150.1 217.23 150.1 217.66C150.1 218.09 150.42 218.63 150.82 218.86L162.16 225.44C162.56 225.67 162.88 225.51 162.88 225.08C162.88 224.65 162.56 224.11 162.16 223.88Z" fill="#E0E0E0"/>
<path d="M162.16 228.58L150.82 222C150.42 221.77 150.1 221.93 150.1 222.36C150.1 222.79 150.42 223.33 150.82 223.56L162.16 230.14C162.56 230.37 162.88 230.21 162.88 229.78C162.88 229.35 162.56 228.81 162.16 228.58Z" fill="#E0E0E0"/>
<path d="M156.65 345.71C156.52 341.86 159.07 337.09 162.34 335.05C163.95 334.04 165.44 333.9 166.55 334.47C173.24 337.82 220.26 367.97 223.26 369.46L223.3 369.48C223.86 369.78 224.22 370.45 224.25 371.42C224.32 373.36 223.03 375.77 221.39 376.79C220.56 377.3 219.8 377.37 219.24 377.07L219.2 377.05C214.44 374.43 168.04 354.65 158.55 349.57C157.44 348.97 156.72 347.64 156.66 345.72L156.65 345.71Z" fill="#051C2C"/>
<path opacity="0.1" d="M158.5 339.21C159.51 337.49 160.84 335.98 162.34 335.05C163.95 334.05 165.43 333.9 166.54 334.46C166.76 334.58 166.83 334.62 166.68 334.53C172.79 337.65 207.78 359.98 219.55 367.23C219.58 367.25 219.6 367.26 219.63 367.28C219.79 367.38 219.95 367.48 220.11 367.57C220.16 367.6 220.21 367.63 220.25 367.66C220.34 367.72 220.43 367.77 220.52 367.82C220.63 367.88 220.73 367.95 220.84 368.01C220.84 368.01 220.86 368.01 220.86 368.02C222.11 368.78 222.95 369.28 223.27 369.44L223.31 369.46C223.41 369.51 223.5 369.59 223.59 369.67C223.98 370.03 224.24 370.6 224.27 371.39C224.27 371.61 224.27 371.84 224.24 372.06C224.24 372.15 224.21 372.23 224.2 372.32C224.18 372.46 224.15 372.59 224.12 372.73C224.09 372.84 224.07 372.95 224.03 373.06C223.99 373.19 223.95 373.32 223.9 373.45C223.87 373.55 223.83 373.64 223.8 373.74C223.8 373.76 223.79 373.77 223.78 373.79L158.52 339.19L158.5 339.21Z" fill="black"/>
<path d="M221.4 376.79C223.04 375.77 224.32 373.37 224.25 371.44C224.19 369.51 222.8 368.77 221.16 369.79C219.52 370.81 218.24 373.21 218.31 375.14C218.37 377.07 219.76 377.81 221.4 376.79Z" fill="#051C2C"/>
<path d="M235.45 378.08C235.5 379.56 234.52 381.4 233.26 382.19C232.63 382.58 232.06 382.64 231.63 382.41L220.26 376.36C219.83 376.13 219.56 375.62 219.53 374.88C219.48 373.4 220.46 371.56 221.72 370.77C222.35 370.38 222.93 370.32 223.36 370.55L234.73 376.6C235.16 376.83 235.44 377.34 235.47 378.09L235.45 378.08Z" fill="#37474F"/>
<path d="M234.71 376.6C235.14 376.83 235.42 377.34 235.45 378.09C235.47 378.65 235.34 379.26 235.11 379.84L220.44 372.02C220.79 371.5 221.23 371.06 221.7 370.77C222.33 370.38 222.91 370.32 223.34 370.55L234.71 376.6Z" fill="#0E1B2B"/>
<path d="M220.86 388.18C220.86 380.89 225.68 373.6 235.31 368.04C254.57 356.92 285.8 356.92 305.06 368.04C314.69 373.6 319.51 380.89 319.51 388.18V401.6C319.51 408.89 314.69 416.18 305.06 421.74C285.8 432.86 254.57 432.86 235.31 421.74C225.68 416.18 220.86 408.89 220.86 401.6V388.18ZM302.67 372.17C294.07 367.2 282.53 364.47 270.18 364.47C257.83 364.47 246.29 367.21 237.69 372.17C229.91 376.66 225.63 382.34 225.63 388.18C225.63 394.02 229.91 399.69 237.69 404.18C246.29 409.15 257.83 411.88 270.18 411.88C282.53 411.88 294.07 409.14 302.67 404.18C310.45 399.69 314.73 394.01 314.73 388.18C314.73 382.35 310.45 376.66 302.67 372.17Z" fill="#051C2C"/>
<path opacity="0.3" d="M305.06 408.31C285.8 419.43 254.57 419.43 235.31 408.31C216.05 397.19 216.05 379.16 235.31 368.04C254.57 356.92 285.8 356.92 305.06 368.04C324.32 379.16 324.32 397.19 305.06 408.31ZM314.74 388.17C314.74 382.34 310.46 376.65 302.68 372.16C294.08 367.19 282.54 364.46 270.19 364.46C257.84 364.46 246.3 367.2 237.7 372.16C229.92 376.65 225.64 382.33 225.64 388.17C225.64 394.01 229.92 399.68 237.7 404.17C246.3 409.14 257.84 411.87 270.19 411.87C282.54 411.87 294.08 409.13 302.68 404.17C310.46 399.68 314.74 394 314.74 388.17Z" fill="white"/>
<path d="M314.74 388.18C314.74 390.47 314.08 392.72 312.81 394.9C310.85 391.51 307.41 388.34 302.67 385.61C294.07 380.64 282.53 377.9 270.18 377.9C257.83 377.9 246.29 380.64 237.7 385.61C232.96 388.34 229.51 391.52 227.55 394.9C226.29 392.72 225.63 390.47 225.63 388.18C225.63 382.35 229.91 376.67 237.7 372.17C246.3 367.21 257.84 364.47 270.18 364.47C282.52 364.47 294.08 367.21 302.67 372.17C310.45 376.66 314.74 382.35 314.74 388.18Z" fill="#051C2C"/>
<path opacity="0.1" d="M314.74 388.18C314.74 390.47 314.08 392.72 312.81 394.9C310.85 391.51 307.41 388.34 302.67 385.61C294.07 380.64 282.53 377.9 270.18 377.9C257.83 377.9 246.29 380.64 237.7 385.61C232.96 388.34 229.51 391.52 227.55 394.9C226.29 392.72 225.63 390.47 225.63 388.18C225.63 382.35 229.91 376.67 237.7 372.17C246.3 367.21 257.84 364.47 270.18 364.47C282.52 364.47 294.08 367.21 302.67 372.17C310.45 376.66 314.74 382.35 314.74 388.18Z" fill="black"/>
<path opacity="0.4" d="M302.68 378.25C294.08 373.28 282.54 370.55 270.19 370.55C257.84 370.55 246.3 373.29 237.7 378.25C231.28 381.96 227.25 386.47 226.04 391.22C227.26 395.96 231.29 400.48 237.7 404.19C246.3 409.16 257.84 411.89 270.19 411.89C282.54 411.89 294.08 409.15 302.68 404.19C309.1 400.48 313.13 395.97 314.34 391.22C313.12 386.48 309.09 381.96 302.68 378.25Z" fill="white"/>
<path opacity="0.1" d="M281.81 415.86V429.27C290.33 428.09 298.41 425.58 305.06 421.73C314.7 416.17 319.51 408.88 319.51 401.59V388.17C319.51 386.7 319.31 385.23 318.92 383.77C321.26 392.44 316.64 401.62 305.07 408.31C298.42 412.15 290.34 414.66 281.82 415.86H281.81Z" fill="black"/>
<path d="M46.7201 333.9C46.1401 334.14 46.0101 335.26 45.9701 337.49C45.9401 339.18 45.6501 342.13 47.6301 342.68C49.6201 343.22 52.5101 342.86 53.7401 341.24C55.2801 339.22 56.3101 337.45 58.5101 334.98C60.4201 332.84 62.4901 330.83 63.2201 327.86C63.8701 325.18 63.2501 324.04 61.4201 323.31C58.9001 322.3 55.0501 325.87 53.1101 326.46C51.4301 326.97 47.3101 333.67 46.7201 333.91V333.9Z" fill="#0E1B2B"/>
<path d="M46.68 331.83L46.7401 334.57C46.7401 334.57 49.64 336.69 53.66 334.6C53.77 334.33 54.29 330.67 54.29 330.67L46.68 331.83Z" fill="#FFA8A7"/>
<path d="M69.25 349.17C69.25 349.17 68.52 351.57 68.14 353.66C67.84 355.32 67.42 358.1 68.03 359.33C68.64 360.56 70.92 361.31 74.42 361.21C76.69 361.14 80.26 362.6 82.71 363.9C85.24 365.24 90.46 365.68 93.1 365.31C96.21 364.87 99.4 362.99 99.87 361.69C100.35 360.39 99.65 359.06 92.23 356.1C92.16 356.07 81.94 353 78.29 349.16L69.24 349.18L69.25 349.17Z" fill="#0E1B2B"/>
<path d="M69.18 346.22C69.18 346.22 69.24 348.25 69.25 349.41C69.27 350.57 70.68 352.27 74.22 352.06C76.71 351.91 78.44 351.21 78.29 349.15L78.22 346.19L69.17 346.21L69.18 346.22Z" fill="#FFA8A7"/>
<path d="M44.08 295.54C45.13 286.57 46.9901 281.21 46.9901 281.21C46.9901 281.21 45.74 268.93 45 257.28C44.21 244.69 43.48 238.21 45.95 220.03C45.95 220.03 84.54 216.56 85.59 231.11C86.64 245.66 85.15 282.78 84.81 289.19C84.47 295.6 83.5 301.28 82.41 311.68C81.34 321.94 78.22 346.19 78.22 346.19C73.63 348.8 69.17 346.21 69.17 346.21C69.17 346.21 65.65 317.16 65.79 309.77C65.95 300.75 68.23 293.59 68.23 293.59C68.23 293.59 67.19 281.6 66.27 271.17C65.35 260.74 64.52 255.74 64.26 251.2L63.38 250.79C63.38 250.79 62.89 268.83 62.56 275.24C62.22 281.65 61.34 287.81 59.76 299.73C58.39 310.07 54.1 331.99 54.1 331.99C49.51 334.61 46.68 331.83 46.68 331.83C46.68 331.83 43.03 304.51 44.08 295.54Z" fill="#37474F"/>
<path d="M64.27 251.21C64.27 251.21 54.3 246.57 49.26 242.3C49.26 242.3 53.99 248.65 60.07 251.38C60.07 251.38 62.71 273.72 62.69 273.27L63.43 251.19H64.27V251.21Z" fill="#0E1B2B"/>
<path d="M71.1801 168.18L69.6801 181.51L57.1001 180.87L58.4901 165.32L71.1801 168.18Z" fill="#FFA8A7"/>
<path d="M52.3501 173.29C47.6701 173.07 45.2901 173.78 43.1801 177.82C41.0801 181.86 40.2501 193.93 39.5201 200.16C38.7901 206.38 38.6001 210.78 41.1701 211.42C43.7401 212.06 53.7101 212.33 53.7101 212.33L52.3501 173.29Z" fill="#37474F"/>
<path d="M44.4401 180.19C45.1201 176.46 50.0201 172.54 54.6101 173.29C55.6801 173.46 56.7101 173.64 57.7301 173.82C58.2801 176.06 64.4201 177.46 70.2901 176.08C72.0601 176.54 77.8801 177.63 79.3501 178.12C83.5701 179.52 85.3101 183.67 85.9601 197.43C85.9601 197.43 85.6201 228.58 85.7901 234.78C75.3801 239.17 64.4501 239.29 58.3801 238.11C45.7501 235.65 44.1101 230.46 44.1101 230.46L45.9901 216.21C45.9901 216.21 42.9001 188.62 44.4401 180.19Z" fill="#006975"/>
<path d="M70.69 172.58L70.6 173.42C70.6 173.42 66.96 174.33 62.87 173.42C58.78 172.51 57.9601 171.36 57.9601 171.36L58.05 170.41C58.05 170.41 57.03 170.03 56.5 171.6C55.97 173.17 55.91 173.51 55.91 173.51C55.91 173.51 55.44 176.37 60.25 177.83C67.17 179.93 72.22 176.52 72.22 176.52L74.1 176.92C74.1 176.92 72.47 173.16 71.98 172.4C71.49 171.64 70.8 171.75 70.8 171.75L70.7101 172.59L70.69 172.58Z" fill="#37474F"/>
<path d="M109.1 158.29L134.05 171.31L121.65 205.21L98.37 192.17L109.1 158.29Z" fill="#006975"/>
<path d="M110.24 161.61L131.18 172.53L120.2 201.68L100.67 190.73L110.24 161.61Z" fill="#F5F5F5"/>
<path opacity="0.15" d="M114.66 164.75C114.66 164.75 114.84 164.29 115.07 163.71C115.29 163.14 117.04 163.48 118.96 164.47L122.65 166.37C124.58 167.36 125.95 168.63 125.73 169.21L125.32 170.25L114.66 164.75Z" fill="black"/>
<path d="M115.06 160.61C115.2 160.25 115.96 160.31 116.75 160.74L118.19 161.52C118.19 161.52 119.08 159.28 122.4 160.83C125.72 162.38 124.96 164.98 124.96 164.98C124.96 164.98 125.65 165.36 126.49 165.82C127.34 166.29 127.94 166.96 127.84 167.32L127.65 167.98L114.8 161.27C114.8 161.27 114.92 160.96 115.05 160.6L115.06 160.61Z" fill="#051C2C"/>
<path d="M116.45 162.11C117.65 162.7 118.12 162.98 117.77 163.86C117.38 164.87 117.01 165.59 117.01 165.59L122.69 168.56C122.69 168.56 123.16 167.28 123.37 166.78C123.58 166.29 123.99 166.05 124.9 166.52L125.24 166.16L116.27 161.59L116.44 162.09L116.45 162.11Z" fill="#051C2C"/>
<path opacity="0.3" d="M116.45 162.11C117.65 162.7 118.12 162.98 117.77 163.86C117.38 164.87 117.01 165.59 117.01 165.59L122.69 168.56C122.69 168.56 123.16 167.28 123.37 166.78C123.58 166.29 123.99 166.05 124.9 166.52L125.24 166.16L116.27 161.59L116.44 162.09L116.45 162.11Z" fill="black"/>
<path d="M114.42 164.81C114.42 164.81 114.6 164.35 114.83 163.77C115.05 163.2 116.8 163.54 118.72 164.53L122.41 166.43C124.34 167.42 125.71 168.69 125.49 169.27L125.08 170.31L114.42 164.81Z" fill="#051C2C"/>
<path d="M79.3601 178.12C85.1201 178.62 87.5701 179.67 91.9001 187.47C96.5901 195.93 105.61 211.25 106.76 213.18C108.35 215.87 108.65 219.96 107.28 222.43C106 224.74 101.93 225.79 97.3101 220.58C91.8201 214.38 81.6101 199.24 81.6101 199.24C81.6101 199.24 72.9401 187.8 79.3601 178.12Z" fill="#FFA8A7"/>
<path d="M104.88 224.21C109.3 223.67 119.61 209.68 122.54 205.11C125.75 200.11 128.74 197.7 131.47 195.68C136.14 192.23 135.46 186.92 133.42 182.06C132.71 180.38 130.32 181.47 130.32 181.47L129.48 183.78L128.02 187.78C127.03 188.7 126.47 189 126.4 188.72C126.28 188.2 127.13 186.06 127.11 183.82C127.08 181.13 125.2 182.9 124.63 183.84C124.07 184.78 123.41 186.32 122.64 188.29C121.7 190.7 122.09 193.14 120.94 194.79C119.79 196.43 104.41 211.17 104.41 211.17L104.88 224.21Z" fill="#FFA8A7"/>
<path d="M78.25 177.82C81.74 177.73 85.93 178.29 89.18 182.51C92.43 186.73 105.43 209.68 105.43 209.68L112.73 203.14C112.73 203.14 117.32 205.79 118.34 211.07C118.34 211.07 114.82 216.65 111.73 220.04C108.65 223.42 105.21 225.77 102.39 224.73C99.57 223.69 96.69 221.46 90.62 213C84.55 204.55 77.92 194.57 77.92 194.57C77.92 194.57 73.74 184.82 78.25 177.82Z" fill="#37474F"/>
<path d="M80.05 151.87C80.05 151.87 83.19 156.64 82.83 157.1C82.47 157.57 80.16 157.99 80.16 157.99L80.05 151.86V151.87Z" fill="#F28F8F"/>
<path d="M78.5801 154.94C80.6401 154.94 82.3201 153.26 82.3201 151.2C82.3201 149.14 80.6401 147.46 78.5801 147.46C76.5201 147.46 74.8401 149.14 74.8401 151.2C74.8401 153.26 76.5201 154.94 78.5801 154.94ZM78.5801 148.29C80.1901 148.29 81.4901 149.6 81.4901 151.2C81.4901 152.8 80.1801 154.11 78.5801 154.11C76.9801 154.11 75.6701 152.8 75.6701 151.2C75.6701 149.6 76.9801 148.29 78.5801 148.29Z" fill="#0E1B2B"/>
<path d="M71.3201 138.69C77.6801 140.03 79.5101 142.83 80.1101 152.92C80.7401 163.47 79.6601 166.79 78.2701 168.21C77.3301 169.17 72.1301 169.34 69.5101 168.62C66.2301 167.71 58.8101 165.09 55.3301 159.78C51.2401 153.54 50.1701 145.07 54.5501 141.6C60.7101 136.71 68.7301 138.14 71.3201 138.69Z" fill="#FFA8A7"/>
<path d="M71.1 168.92L71.39 166.98C71.39 166.98 74.45 168.74 77.91 168.46C76.7 169.06 73.53 169.23 71.1 168.93V168.92Z" fill="#F28F8F"/>
<path d="M81.97 150.41L70.67 151.87L71.12 152.67L81.97 151.26V150.41Z" fill="#0E1B2B"/>
<path d="M81.2 142.76C80.72 142.83 80.23 142.8 79.76 142.67C80.18 143.57 79.78 144.72 78.99 145.32C78.19 145.92 77.09 146 76.14 145.7C76.48 146.29 76.6 147 76.45 147.67C76.15 149.05 74.59 150.25 73.16 150.05C73.09 151.53 73.07 152.97 71.5 153.65C71.5 153.65 70.5 149.75 67.21 150.24C63.9 150.73 63.45 154.95 65.54 157.51C67.61 160.06 69.54 159.1 69.57 159.09C69.38 159.19 69.31 160.43 69.24 160.67C69.03 161.4 68.75 162.13 68.39 162.8C67.68 164.17 66.66 165.37 65.42 166.29C63.7 167.56 61.6 168.47 59.45 167.95C57.59 167.5 55.89 166.22 55.1 164.45C54.9 164.01 54.74 163.52 54.39 163.19C53.96 162.78 53.33 162.68 52.77 162.49C51.47 162.05 50.39 161.02 49.88 159.75C49.37 158.48 49.45 156.99 50.08 155.77C48.52 155.37 47.24 154.05 46.89 152.48C46.55 150.91 47.16 149.17 48.41 148.15C46.55 147.01 45.58 144.58 46.16 142.47C46.65 140.66 48.16 139.37 49.92 138.87C51.2 138.5 50.71 138.3 51.11 137.04C51.38 136.18 51.89 135.4 52.59 134.83C53.79 133.85 55.5 133.53 56.97 134.02C57.25 132.38 58.56 131.05 60.14 130.61C60.86 130.41 61.65 130.33 62.38 130.52C62.91 130.66 63.99 131.15 64.19 131.65C64.86 130.99 65.08 130.12 65.89 129.53C66.72 128.92 67.74 128.57 68.78 128.57C70.49 128.57 72.16 129.56 72.99 131.05C74.13 129.85 75.78 129.11 77.43 129.18C79.08 129.25 80.71 130.19 81.48 131.65C82.25 133.11 82.07 135.06 80.94 136.27C81.96 136.7 82.9 137.41 83.4 138.39C83.94 139.46 83.87 140.8 83.05 141.71C82.66 142.15 82.4 142.44 81.81 142.63C81.61 142.69 81.41 142.74 81.21 142.77L81.2 142.76Z" fill="#0E1B2B"/>
<path d="M71.56 155.86L71.44 151.45C72.66 151.42 73.67 152.38 73.71 153.6C73.74 154.82 72.78 155.83 71.56 155.87V155.86Z" fill="#0E1B2B"/>
</g>
<defs>
<clipPath id="clip0_101_1151">
<rect width="463.07" height="461.55" fill="white" transform="matrix(-1 0 0 1 463.07 0)"/>
</clipPath>
</defs>
</svg>
