<svg width="15" height="12" viewBox="0 0 15 12" fill="none" xmlns="http://www.w3.org/2000/svg">
<path d="M2.06564 5.99983L0.190026 10.6895C0.156602 10.7729 0.147976 10.8642 0.165187 10.9523C0.182398 11.0405 0.224713 11.1218 0.287041 11.1865L0.293641 11.1931C0.356126 11.2555 0.435029 11.2989 0.521184 11.3182C0.60734 11.3375 0.697213 11.332 0.780364 11.3023L14.3961 6.43906C14.4869 6.40697 14.5655 6.34753 14.6211 6.26893C14.6767 6.19032 14.7065 6.09642 14.7066 6.00013C14.7066 5.90385 14.6768 5.80992 14.6213 5.73128C14.5657 5.65263 14.4872 5.59314 14.3964 5.56098L0.78068 0.697679C0.696088 0.667395 0.604552 0.662175 0.517066 0.682646C0.42958 0.703117 0.349863 0.748409 0.28749 0.813082C0.225117 0.877754 0.182741 0.959058 0.165449 1.04723C0.148158 1.1354 0.156688 1.22668 0.190013 1.31012L2.06564 5.99983ZM12.8514 5.99985L1.44099 10.0754L3.00114 6.17308C3.04584 6.06191 3.04584 5.93776 3.00114 5.8266L1.44131 1.92389L12.8514 5.99985Z" fill="#F3F3F9"/>
</svg>
