<svg width="35" height="24" viewBox="0 0 35 24" fill="none" xmlns="http://www.w3.org/2000/svg">
<path d="M21.3442 23.5548C20.6202 23.5548 19.9123 23.2812 19.3652 22.7342C18.2712 21.6401 18.2712 19.8703 19.3652 18.7762L26.3641 11.7774L19.3652 4.77853C18.2712 3.68446 18.2712 1.91463 19.3652 0.820555C20.4593 -0.273518 22.2291 -0.273518 23.3232 0.820555L34.28 11.7774L23.3232 22.7342C22.7762 23.2812 22.0521 23.5548 21.3442 23.5548Z" fill="#F3F3F9"/>
<path d="M15.9382 14.577H2.79955C1.25497 14.577 0 13.322 0 11.7775C0 10.2329 1.25497 8.97791 2.79955 8.97791H15.9382C17.4828 8.97791 18.7377 10.2329 18.7377 11.7775C18.7377 13.322 17.4828 14.577 15.9382 14.577Z" fill="#F3F3F9"/>
</svg>
