<svg xmlns="http://www.w3.org/2000/svg" width="18" height="17" viewBox="0 0 18 17" fill="none">
  <path d="M8.91846 1.53C11.1873 1.53 11.4554 1.53654 12.3511 1.58231C13.1815 1.62154 13.6327 1.75885 13.9269 1.87654C14.3258 2.03346 14.6069 2.21654 14.9011 2.51077C15.2019 2.81154 15.385 3.09269 15.5354 3.485C15.6531 3.78577 15.7904 4.23692 15.8296 5.06077C15.8688 5.95654 15.8819 6.22462 15.8819 8.49346C15.8819 10.7623 15.8754 11.0304 15.8296 11.9262C15.7904 12.7565 15.6531 13.2077 15.5354 13.5019C15.3785 13.9008 15.1954 14.1819 14.9011 14.4827C14.6069 14.7769 14.3192 14.9665 13.9269 15.1169C13.6261 15.2346 13.175 15.3719 12.3511 15.4112C11.4554 15.4504 11.1873 15.4635 8.91846 15.4635C6.64961 15.4635 6.38153 15.4569 5.48576 15.4112C4.65538 15.3719 4.20423 15.2346 3.91 15.1169C3.51115 14.96 3.23 14.7769 2.92923 14.4827C2.635 14.1819 2.44538 13.9008 2.29499 13.5019C2.1773 13.2012 2.03999 12.75 2.00076 11.9262C1.96153 11.0304 1.94846 10.7623 1.94846 8.49346C1.94846 6.22462 1.95499 5.95654 2.00076 5.06077C2.03999 4.23038 2.1773 3.77923 2.29499 3.485C2.45192 3.08615 2.635 2.805 2.92923 2.51077C3.23 2.21 3.51115 2.02692 3.91 1.87654C4.21076 1.75885 4.66192 1.62154 5.48576 1.58231C6.38153 1.54308 6.64961 1.53 8.91846 1.53ZM8.91846 0C6.61038 0 6.32269 0.0130769 5.41384 0.0523076C4.51153 0.0915384 3.89038 0.235385 3.34769 0.444615C2.78538 0.660385 2.31461 0.954615 1.84384 1.42538C1.37307 1.89615 1.07884 2.37346 0.863073 2.92923C0.653842 3.47192 0.509994 4.08654 0.470763 4.99538C0.431533 5.90423 0.418457 6.19192 0.418457 8.5C0.418457 10.8081 0.424994 11.0958 0.470763 12.0046C0.509994 12.9069 0.653842 13.5281 0.863073 14.0708C1.07884 14.6265 1.37307 15.1038 1.84384 15.5746C2.31461 16.0454 2.79192 16.3396 3.34769 16.5554C3.89038 16.7646 4.50499 16.9085 5.41384 16.9477C6.32269 16.9869 6.61038 17 8.91846 17C11.2265 17 11.5142 16.9935 12.4231 16.9477C13.3254 16.9085 13.9465 16.7646 14.4892 16.5554C15.0515 16.3396 15.5223 16.0454 15.9931 15.5746C16.4638 15.1038 16.7581 14.6265 16.9738 14.0708C17.1831 13.5281 17.3269 12.9135 17.3661 12.0046C17.4054 11.0958 17.4185 10.8081 17.4185 8.5C17.4185 6.19192 17.4119 5.90423 17.3661 4.99538C17.3269 4.09308 17.1831 3.47192 16.9738 2.92923C16.7581 2.37346 16.4638 1.89615 15.9931 1.42538C15.5223 0.954615 15.045 0.660385 14.4892 0.444615C13.9465 0.235385 13.3319 0.0915384 12.4231 0.0523076C11.5142 0.0130769 11.2265 0 8.91846 0Z" fill="#051C2C"/>
  <path d="M8.91811 4.13879C6.50542 4.13879 4.55042 6.09379 4.55042 8.50649C4.55042 10.9192 6.50542 12.8742 8.91811 12.8742C11.3308 12.8742 13.2858 10.9192 13.2858 8.50649C13.2858 6.09379 11.3308 4.13879 8.91811 4.13879ZM8.91811 11.3376C7.35542 11.3376 6.08695 10.0692 6.08695 8.50649C6.08695 6.94379 7.35542 5.67533 8.91811 5.67533C10.4808 5.67533 11.7493 6.94379 11.7493 8.50649C11.7493 10.0692 10.4808 11.3376 8.91811 11.3376Z" fill="#051C2C"/>
  <path d="M14.4762 3.96238C14.4762 4.52469 14.0185 4.98238 13.4562 4.98238C12.8938 4.98238 12.4362 4.52469 12.4362 3.96238C12.4362 3.40008 12.8938 2.94238 13.4562 2.94238C14.0185 2.94238 14.4762 3.40008 14.4762 3.96238Z" fill="#051C2C"/>
</svg>