<svg width="14" height="14" viewBox="0 0 14 14" fill="none" xmlns="http://www.w3.org/2000/svg">
<path d="M4.92501 9.07482L6.91487 13.7172C6.95019 13.7998 7.00862 13.8704 7.08313 13.9206C7.15764 13.9708 7.24506 13.9983 7.33487 14H7.3442C7.4325 13.9999 7.51897 13.9748 7.59356 13.9276C7.66815 13.8803 7.72781 13.8129 7.7656 13.7331L13.9545 0.666455C13.996 0.579573 14.0096 0.481966 13.9933 0.387067C13.977 0.292168 13.9318 0.204641 13.8637 0.136534C13.7957 0.0684261 13.7082 0.0230852 13.6133 0.0067512C13.5184 -0.00958282 13.4208 0.00389296 13.3339 0.0453239L0.267212 6.23423C0.185983 6.27263 0.117566 6.33367 0.0701792 6.41001C0.0227924 6.48634 -0.00154973 6.57474 7.64668e-05 6.66457C0.00170266 6.75441 0.029228 6.84186 0.0793466 6.91643C0.129465 6.99101 0.200046 7.04952 0.282612 7.08496L4.92501 9.07482ZM12.5517 1.44812L7.3652 12.3984L5.709 8.53582C5.66201 8.4256 5.57422 8.33782 5.464 8.29082L1.60141 6.63416L12.5517 1.44812Z" fill="#F3F3F9"/>
</svg>
