<svg width="17" height="17" viewBox="0 0 17 17" fill="none" xmlns="http://www.w3.org/2000/svg">
<path fill-rule="evenodd" clip-rule="evenodd" d="M16.9804 8.06571C16.8694 3.59202 13.1794 0 8.64695 0C4.11449 0 0.50941 3.50711 0.313482 7.9155C0.313482 8.03959 0.306954 8.15714 0.306954 8.28123C0.306954 9.84866 0.744528 11.3051 1.50212 12.559L0 17L4.61736 15.5306C5.81252 16.1837 7.18402 16.5625 8.64695 16.5625C13.2578 16.5625 16.9869 12.8594 16.9869 8.28123C16.9869 8.20939 16.9869 8.13755 16.9869 8.07224L16.9804 8.06571ZM8.64695 15.2367C7.22321 15.2367 5.89743 14.8122 4.78717 14.0872L2.08989 14.9493L2.96504 12.3631C2.12255 11.2136 1.63273 9.80294 1.63273 8.28123C1.63273 8.05265 1.6458 7.8306 1.66539 7.60854C2.01153 4.08837 5.00922 1.32578 8.64041 1.32578C12.2716 1.32578 15.3477 4.15368 15.6285 7.73916C15.6416 7.92203 15.6546 8.09836 15.6546 8.28123C15.6546 12.1214 12.5067 15.2367 8.64041 15.2367H8.64695Z" fill="#006975"/>
<path fill-rule="evenodd" clip-rule="evenodd" d="M12.4642 9.94711C12.2553 9.84261 11.256 9.35279 11.0666 9.28748C10.8772 9.21564 10.7401 9.18299 10.6029 9.39198C10.4658 9.59444 10.0739 10.0516 9.95637 10.1822C9.83229 10.3194 9.72125 10.3324 9.51227 10.2345C9.30981 10.13 8.65019 9.92098 7.86648 9.2287C7.2591 8.69317 6.84765 8.02701 6.73009 7.82455C6.61254 7.62209 6.71703 7.51107 6.82153 7.4131C6.91296 7.32167 7.02399 7.17799 7.12848 7.06043C7.1546 7.02778 7.18073 6.99512 7.20032 6.96247C7.24604 6.89063 7.28522 6.81879 7.33094 6.72082C7.40278 6.58367 7.3636 6.46612 7.31788 6.36815C7.26564 6.26366 6.85419 5.26443 6.68438 4.85951C6.51458 4.45459 6.34477 4.52643 6.22068 4.52643C6.0966 4.52643 5.96597 4.50684 5.82882 4.50684C5.69167 4.50684 5.46962 4.55908 5.28023 4.76154C5.09083 4.964 4.56836 5.45382 4.56836 6.45306C4.56836 6.68817 4.61408 6.92328 4.67286 7.14534C4.88185 7.85721 5.32595 8.45152 5.40432 8.54949C5.50881 8.68011 6.81499 10.7961 8.89183 11.6125C10.9752 12.4223 10.9752 12.148 11.3475 12.1154C11.7197 12.0827 12.5557 11.6256 12.7255 11.1488C12.8953 10.6786 12.8953 10.2671 12.8496 10.1822C12.7973 10.0973 12.6602 10.0516 12.4577 9.94711H12.4642Z" fill="#006975"/>
</svg>
