<svg xmlns="http://www.w3.org/2000/svg" width="18" height="17" viewBox="0 0 18 17" fill="none">
  <path fill-rule="evenodd" clip-rule="evenodd" d="M17.3989 8.06569C17.2878 3.59201 13.5979 0 9.06541 0C4.53294 0 0.927867 3.50711 0.731939 7.91548C0.731939 8.03957 0.725411 8.15713 0.725411 8.28121C0.725411 9.84864 1.16298 11.305 1.92057 12.559L0.418457 17L5.03582 15.5305C6.23098 16.1836 7.60248 16.5624 9.06541 16.5624C13.6762 16.5624 17.4054 12.8594 17.4054 8.28121C17.4054 8.20937 17.4054 8.13753 17.4054 8.07222L17.3989 8.06569ZM9.06541 15.2366C7.64167 15.2366 6.31589 14.8121 5.20563 14.0872L2.50835 14.9493L3.38349 12.363C2.541 11.2136 2.05119 9.80292 2.05119 8.28121C2.05119 8.05263 2.06425 7.83058 2.08385 7.60853C2.42998 4.08836 5.42768 1.32578 9.05887 1.32578C12.6901 1.32578 15.7661 4.15367 16.047 7.73915C16.06 7.92201 16.0731 8.09835 16.0731 8.28121C16.0731 12.1214 12.9252 15.2366 9.05887 15.2366H9.06541Z" fill="#051C2C"/>
  <path fill-rule="evenodd" clip-rule="evenodd" d="M12.8829 9.94697C12.674 9.84248 11.6747 9.35266 11.4853 9.28735C11.2959 9.21551 11.1588 9.18286 11.0216 9.39185C10.8845 9.5943 10.4926 10.0515 10.3751 10.1821C10.251 10.3192 10.14 10.3323 9.93097 10.2343C9.72851 10.1298 9.06889 9.92085 8.28518 9.22857C7.6778 8.69304 7.26635 8.02688 7.1488 7.82442C7.03124 7.62197 7.13573 7.51094 7.24023 7.41298C7.33166 7.32154 7.44269 7.17786 7.54718 7.06031C7.57331 7.02765 7.59943 6.995 7.61902 6.96234C7.66474 6.8905 7.70392 6.81866 7.74964 6.7207C7.82148 6.58355 7.7823 6.46599 7.73658 6.36803C7.68434 6.26353 7.27289 5.2643 7.10308 4.85938C6.93328 4.45447 6.76347 4.52631 6.63938 4.52631C6.5153 4.52631 6.38467 4.50671 6.24752 4.50671C6.11038 4.50671 5.88833 4.55896 5.69893 4.76142C5.50953 4.96388 4.98706 5.4537 4.98706 6.45293C4.98706 6.68804 5.03278 6.92316 5.09156 7.14521C5.30055 7.85708 5.74465 8.45139 5.82302 8.54936C5.92751 8.67998 7.2337 10.796 9.31053 11.6124C11.3939 12.4222 11.3939 12.1479 11.7662 12.1152C12.1384 12.0826 12.9744 11.6254 13.1442 11.1487C13.314 10.6784 13.314 10.267 13.2683 10.1821C13.216 10.0972 13.0789 10.0515 12.8764 9.94697H12.8829Z" fill="#051C2C"/>
</svg>